<?xml version="1.0" standalone="no"?>
<!DOCTYPE svg PUBLIC "-//W3C//DTD SVG 1.1//EN" "http://www.w3.org/Graphics/SVG/1.1/DTD/svg11.dtd" >
<svg xmlns="http://www.w3.org/2000/svg">
<metadata>
Created by FontForge 20120731 at Wed Feb  3 16:58:44 2016
 By Ads
</metadata>
<defs>
<font id="iconfont" horiz-adv-x="1024" >
  <font-face 
    font-family="iconfont"
    font-weight="500"
    font-stretch="normal"
    units-per-em="1024"
    panose-1="2 0 6 3 0 0 0 0 0 0"
    ascent="896"
    descent="-128"
    x-height="792"
    bbox="-10.12 -224 1215 896"
    underline-thickness="50"
    underline-position="-100"
    unicode-range="U+0078-E668"
  />
<missing-glyph horiz-adv-x="374" 
d="M34 0v682h272v-682h-272zM68 34h204v614h-204v-614z" />
    <glyph glyph-name=".notdef" horiz-adv-x="374" 
d="M34 0v682h272v-682h-272zM68 34h204v614h-204v-614z" />
    <glyph glyph-name=".null" horiz-adv-x="0" 
 />
    <glyph glyph-name="nonmarkingreturn" horiz-adv-x="341" 
 />
    <glyph glyph-name="x" unicode="x" horiz-adv-x="1001" 
d="M281 543q-27 -1 -53 -1h-83q-18 0 -36.5 -6t-32.5 -18.5t-23 -32t-9 -45.5v-76h912v41q0 16 -0.5 30t-0.5 18q0 13 -5 29t-17 29.5t-31.5 22.5t-49.5 9h-133v-97h-438v97zM955 310v-52q0 -23 0.5 -52t0.5 -58t-10.5 -47.5t-26 -30t-33 -16t-31.5 -4.5q-14 -1 -29.5 -0.5
t-29.5 0.5h-32l-45 128h-439l-44 -128h-29h-34q-20 0 -45 1q-25 0 -41 9.5t-25.5 23t-13.5 29.5t-4 30v167h911zM163 247q-12 0 -21 -8.5t-9 -21.5t9 -21.5t21 -8.5q13 0 22 8.5t9 21.5t-9 21.5t-22 8.5zM316 123q-8 -26 -14 -48q-5 -19 -10.5 -37t-7.5 -25t-3 -15t1 -14.5
t9.5 -10.5t21.5 -4h37h67h81h80h64h36q23 0 34 12t2 38q-5 13 -9.5 30.5t-9.5 34.5q-5 19 -11 39h-368zM336 498v228q0 11 2.5 23t10 21.5t20.5 15.5t34 6h188q31 0 51.5 -14.5t20.5 -52.5v-227h-327z" />
    <glyph glyph-name="uniE600" unicode="&#xe600;" horiz-adv-x="1000" 
d="M632 101q-36 -25 -77.5 -38t-85.5 -12q-8 0 -23 1q-2 0 -9 1l-18 3q-1 0 -10 2q-11 3 -17 5q-1 0 -4 1t-4 1q-3 1 -6.5 2.5t-6.5 2.5l-6 2q-1 1 -3 1l-1 1l-11 6l-10 4l-1 1q-36 19 -64 47q0 1 -1 1q-9 10 -16 19q-2 2 -3 4q-61 76 -61 173h73l-117 176l-118 -176h74
q0 -113 64 -207l2 -2v-1q2 -3 4 -5.5l6 -7.5l3 -4q1 -2 3 -4t2 -3q8 -9 21 -23q2 -1 2 -2q37 -37 83 -62l2 -1q13 -7 27 -13q1 -1 3 -2t4 -1q8 -3 23 -9l12 -4q10 -3 21 -5q13 -3 14 -3q1 -1 2 -1q3 -1 4 -1q4 0 21 -2q5 -1 7 -2q20 -1 37 -1q115 0 209 66q15 11 18.5 28.5
t-7.5 32.5q-10 15 -28 18.5t-33 -7.5zM839 329q0 38 -8 75t-22 70t-35 63l-1 1v1q-7 9 -17 21q0 1 -0.5 1.5t-0.5 1.5q-57 68 -137 103q-1 0 -2.5 0.5t-2.5 0.5l-26 10q-8 3 -9 3q-9 3 -23 6q-2 0 -4 1t-4.5 1.5t-4.5 0.5q-1 0 -3 0.5t-3 0.5q-2 1 -3.5 1t-3.5 0.5t-3 0.5
h-4q-2 0 -4 1q-2 0 -5.5 0.5t-6.5 0.5q-12 1 -29 2h-3h-2h-1q-115 0 -209 -66q-10 -7 -15 -18t-4 -22.5t8 -21.5q11 -15 29 -18t32 8q73 51 162 50q13 0 25 -2h7q6 -1 10.5 -2t9.5 -2q1 0 8 -1q12 -3 19 -5l6 -2q2 -1 3.5 -1.5t3.5 -1t3.5 -1t3.5 -1.5t3.5 -1.5t3.5 -1.5h1
l1 -1q62 -26 105 -79q31 -37 47.5 -82t16.5 -95h-74l118 -176l117 176h-73z" />
    <glyph glyph-name="uniE601" unicode="&#xe601;" 
d="M882 376h-294l1 284v0v5h-1q-1 8 -3 16.5t-6.5 15.5t-9.5 13t-12 11t-14 8.5t-15.5 5.5t-17.5 2q-30 0 -52.5 -20.5t-23.5 -50.5h-1v-290h-294q-32 0 -54.5 -22.5t-22 -54.5t23 -55t54.5 -23h293v-298q0 -13 4 -24.5t11.5 -21t17 -17t21 -11.5t24.5 -4q10 0 20 2.5
t18.5 7.5t15.5 12t12 15.5t7.5 18.5t2.5 21l1 299l295 1q32 -1 54.5 21.5t22 54.5t-23 54.5t-54.5 23.5z" />
    <glyph glyph-name="uniE602" unicode="&#xe602;" 
d="M934 52l-368 315q11 25 17 52t6 54q0 53 -21 101.5t-56 83.5t-83.5 56t-101.5 21q-39 0 -76 -12q-6 -1 -10 -5.5t-5.5 -10.5t0 -12t5.5 -10l138 -138q9 -9 9 -21q0 -6 -2.5 -11.5t-6.5 -9.5l-84 -84q-8 -8 -21 -8t-21 8l-138 138q-4 4 -10 5.5t-12 0.5q-3 -1 -5.5 -2.5
t-4.5 -3.5t-4 -4.5t-2 -5.5q-12 -37 -12 -76q0 -108 77 -185t185 -77q18 0 36 2.5t35.5 7.5t34.5 13l315 -368q4 -5 9 -9t10 -7t11 -5t12 -3t13 -1q29 0 51 21l84 84q22 23 21 54t-25 52zM762 11q3 2 4.5 5t2 6t0.5 6q0 10 -7 17t-17 7t-17 -7l-39 -39l-23 27l60 58
q7 7 7 17t-6 17q-7 7 -17 7t-17 -7l-58 -55l-26 30l33 33q2 2 3 4l2 4q1 2 1.5 4.5t0.5 4.5q0 10 -7 17q-3 3 -7.5 5t-9.5 2t-9.5 -2t-7.5 -5l-30 -31l-122 142q-12 14 -28 5q-23 -12 -49 -18.5t-52 -6.5q-58 0 -107.5 29t-78.5 78.5t-29 107.5q0 11 1 22l107 -107
q22 -22 54 -22t54 22l84 84q11 11 16.5 25t5.5 29q0 32 -22 54l-107 107q11 1 22 1q89 0 152 -63t63 -152q0 -54 -25 -101q-3 -5 -3 -10t2 -10t6 -8l381 -327q3 -3 5 -6t3.5 -6t1.5 -7q0 -11 -8 -19l-84 -84q-8 -7 -19.5 -7t-18.5 9l-62 73z" />
    <glyph glyph-name="uniE603" unicode="&#xe603;" 
d="M859 449l-131 144l-299 -329l-137 151l-126 -139l243 -267v1l25 -27z" />
    <glyph glyph-name="uniE604" unicode="&#xe604;" 
d="M869 240l-277 -343q-3 -4 -8 -4v790h72v-431h204q6 0 9 -4t0 -8zM368 324h-204q-3 0 -5.5 1t-3.5 3q-3 4 0 8l277 343l2 2q1 1 2.5 1.5t3.5 0.5v-790h-72v431z" />
    <glyph glyph-name="uniE605" unicode="&#xe605;" 
d="M906 -64h-83v41h83q17 0 29.5 12.5t12.5 29.5v436h-166q-35 0 -59 24.5t-24 58.5v187h-374q-17 0 -29.5 -12.5t-12.5 -29.5h-41q0 9 1.5 17t4.5 15.5t7.5 14t10.5 12.5t12.5 10.5t14 7.5t15.5 4.5t17 1.5h311h11h22h58l256 -276l-1 -7l7 -7v-457q0 -35 -24 -59t-59 -24z
M740 690v-152q0 -9 3.5 -16.5t9 -13t13 -9t16.5 -3.5h140zM440 642h21h58l257 -276l-2 -8l8 -7v-457q0 -34 -24.5 -58.5t-58.5 -24.5h-582q-13 0 -26 4.5t-23 12t-18 17.5t-12 23t-4 26v665q0 34 24.5 58.5t58.5 24.5h312h11zM532 566v-153q0 -11 6 -20.5t15.5 -15
t20.5 -5.5h140zM76 559v-665q0 -17 12 -29t29 -12h582q8 0 15.5 3t13 8.5t9 13.5t3.5 16v436h-166q-34 0 -58.5 24.5t-24.5 58.5v187h-374q-11 0 -20.5 -5.5t-15 -15t-5.5 -20.5zM179 310h208v-42h-208v42zM179 434h208v-41h-208v41zM636 143h-457v42h457v-42zM636 19h-457
v41h457v-41z" />
    <glyph glyph-name="uniE606" unicode="&#xe606;" 
d="M560 300l-328 -331l116 -117l444 448l-444 448l-116 -117z" />
    <glyph glyph-name="uniE607" unicode="&#xe607;" 
d="M512 95q-26 0 -44.5 -19t-18.5 -45.5t18.5 -45t44.5 -18.5q9 0 17 2t15 6t12.5 10t9.5 13t6.5 15.5t2.5 17.5q0 26 -18.5 45t-44.5 19zM284 167l45 -45q79 70 183 70t183 -70l45 45q-98 89 -228 89t-228 -89zM173 281l44 -45q60 55 136 85.5t159 30.5t159 -30.5
t136 -85.5l44 45q-69 64 -156 100t-183 36t-183 -36t-156 -100zM512 577q-128 0 -244 -48t-206 -134l44 -46q82 78 186.5 121t219.5 43t219.5 -43t186.5 -121l44 46q-60 57 -130.5 97.5t-152 62.5t-167.5 22z" />
    <glyph glyph-name="uniE608" unicode="&#xe608;" 
d="M832 142q17 0 29.5 -12.5t12.5 -30.5t-12.5 -30.5t-30 -12.5t-30 12.5t-12.5 30.5q0 12 6 21.5t15.5 15.5t21.5 6zM704 142q18 0 30.5 -12.5t12.5 -30.5t-12.5 -30.5t-30.5 -12.5t-30.5 12.5t-12.5 30.5t12.5 30.5t30.5 12.5zM576 142q18 0 30.5 -12.5t12.5 -30.5
q0 -9 -3.5 -16.5t-9.5 -13.5t-13.5 -9.5t-16.5 -3.5q-18 0 -30.5 12.5t-12.5 30.5t12.5 30.5t30.5 12.5zM885 326h-542v224q-1 35 -26 59t-60 24q-13 0 -26 -4t-23.5 -11.5t-18.5 -18t-12.5 -23t-4.5 -26.5v-224h-33q-28 0 -54 -11t-44.5 -29.5t-29.5 -44t-11 -53.5v-107
q0 -57 40.5 -97.5t98.5 -40.5h746q58 0 98.5 40.5t40.5 97.5v107q0 57 -40.5 97.5t-98.5 40.5zM210 549v0q0 20 14 33.5t33 13.5q8 0 15 -2t13 -6.5t10.5 -10.5t7 -13t2.5 -15h-1h1v-223h-95v223zM981 81q0 -26 -13 -48t-35 -35t-48 -13h-746q-40 0 -68 28t-28 68v107
q0 40 28 68t68 28h746q40 0 68 -28t28 -68v-107z" />
    <glyph glyph-name="uniE609" unicode="&#xe609;" 
d="M512 447q-64 0 -109.5 -46.5t-45.5 -111.5t45.5 -111t109.5 -46q6 0 13 0.5t15 1.5q6 2 10.5 5.5t6.5 9.5t1 12q-2 9 -9.5 14.5t-16.5 3.5q-11 -2 -20 -2q-46 0 -78.5 33t-32.5 79.5t32.5 79.5t78.5 33q30 0 55.5 -15t40.5 -41t15 -57q0 -8 -2 -20q-2 -9 3.5 -16.5
t14.5 -9.5t16.5 3.5t9.5 14.5q2 16 2 28q0 77 -60 125q-42 32 -95 33zM971 378q-1 4 -3.5 8t-6 6.5t-7.5 3.5q-37 8 -66.5 30t-47.5 55q-39 68 -16 143q4 14 -7 23q-33 30 -71.5 52t-80.5 37q-13 5 -23 -6q-53 -57 -130 -57q-37 0 -70.5 14.5t-59.5 42.5q-10 11 -23 6
q-42 -15 -80.5 -37t-71.5 -52q-11 -9 -7 -23q11 -37 7 -73.5t-22.5 -69.5t-48 -55t-66.5 -30q-6 -2 -10.5 -6.5t-6.5 -11.5l-4 -30q-2 -15 -3 -29.5t-1 -29.5v-11q0 -5 1 -10v-12l2 -10v-12q1 -5 2 -11t1.5 -11.5t1.5 -10.5q3 -15 17 -18q76 -18 114.5 -85.5t15.5 -142.5
q-1 -4 -0.5 -8.5t2.5 -8.5t5 -7q67 -59 152 -89q1 0 3 -0.5t4 -0.5q10 0 16 7q13 14 28 25t31.5 18t34 11t36.5 4q77 0 130 -58q4 -5 10.5 -6.5t12.5 0.5q84 30 152 89q11 10 7 24q-23 75 15.5 142.5t114.5 85.5q14 3 17 18q4 22 6 44.5t2 43.5q0 44 -8 89zM929 223
q-40 -13 -73.5 -39.5t-54.5 -63.5q-44 -77 -24 -164q-51 -42 -113 -66q-31 29 -70 45t-82 16q-87 0 -152 -61q-20 8 -39.5 18t-38 22t-35.5 26q20 87 -24 164t-128 103q-3 17 -4.5 33.5t-1.5 32.5q0 33 6 67q84 26 128 102.5t24 163.5q51 42 113 67q65 -61 152 -61
q88 0 152 61q20 -8 40 -18.5t38 -22.5t35 -26q-20 -87 24 -163.5t128 -102.5q3 -17 4.5 -34t1.5 -33q-1 -33 -6 -66z" />
    <glyph glyph-name="uniE60A" unicode="&#xe60a;" 
d="M943 231q10 0 17 7t7 17v303q0 10 -2 19t-5.5 17t-8.5 15l-1 1v1q-1 1 -2 1l-1 1q-27 34 -69 34h-738q-36 0 -62.5 -26t-26.5 -63v-539q0 -37 26.5 -63t62.5 -26h738q36 0 62.5 26t26.5 63v74q0 7 -3.5 12t-9 8.5t-11.5 3.5q-10 0 -16.5 -7t-6.5 -17v0v-69q0 -6 -1.5 -11
t-3.5 -9.5t-5.5 -9t-7.5 -7.5t-8.5 -5.5t-10 -3.5t-10.5 -1h-473h-255q-19 0 -33 13.5t-14 33.5v530q0 2 1 7l410 -334q4 -3 12 -4h2h1h4q2 0 4 0.5t4 1.5l4 2l379 330l1 -1v-2v-299q0 -5 1.5 -9.5t5 -7.5t7.5 -5t9 -2zM145 601h728q9 0 17 -4l-366 -320l-392 321q7 3 13 3z
" />
    <glyph glyph-name="uniE60B" unicode="&#xe60b;" 
d="M917 -103l-244 244q97 102 97 242q0 96 -47 177t-128 128t-177 47q-71 0 -136.5 -27.5t-112.5 -75t-75 -112.5t-28 -137q0 -95 47.5 -176t128.5 -128.5t176 -47.5q114 0 207 68l247 -247q6 -6 14.5 -8.5t16.5 0t14 8.5q10 9 10 22.5t-10 22.5zM418.5 89
q-78.5 0 -145 38.5t-105 105t-38.5 144.5q0 119 84.5 203.5t204 84.5t203.5 -84.5t84 -203.5q0 -78 -38.5 -144.5t-104.5 -105t-144.5 -38.5z" />
    <glyph glyph-name="uniE60C" unicode="&#xe60c;" 
d="M869 332q-13 8 -179.5 110.5t-319.5 196.5t-166 102q-28 15 -51 0t-23 -44v-820q0 -30 24.5 -44t47.5 0q19 12 176 108t319.5 196t171.5 106q25 15 25 44.5t-25 44.5z" />
    <glyph glyph-name="uniE60D" unicode="&#xe60d;" 
d="M512 -178q-95 0 -181 37t-148.5 99.5t-99.5 148.5t-37 181t37 181t99.5 148.5t148.5 99.5t181 37t181 -37t148.5 -99.5t99.5 -148.5t37 -181t-37 -181t-99.5 -148.5t-148.5 -99.5t-181 -37zM512 704q-113 0 -208.5 -56t-151.5 -151.5t-56 -208.5t56 -208.5t151.5 -151.5
t208.5 -56q85 0 162 33t132.5 88.5t88.5 132.5t33 162q0 68 -21 131.5t-59.5 114.5t-89.5 89.5t-114.5 59.5t-131.5 21zM650 320l-113 114v-405q0 -11 -7.5 -18.5t-18 -7.5t-18 7.5t-7.5 18.5v403l-111 -112q-8 -7 -18.5 -7t-18 7.5t-7.5 18t8 17.5l150 151q2 4 5 7
q5 5 11.5 6.5t13 0t11.5 -6.5l156 -158q2 -2 3.5 -4t2.5 -4.5t1.5 -5t0.5 -5t-0.5 -5t-1.5 -4.5t-2.5 -4.5t-3.5 -3.5q-5 -5 -11.5 -7t-13 0t-11.5 7z" />
    <glyph glyph-name="uniE60E" unicode="&#xe60e;" 
d="M762 100q-26 0 -48.5 -10t-40.5 -27l-301 167q5 9 8 17.5t5 18.5t2 20q0 16 -6 35l296 184q36 -32 83 -32q52 0 88.5 36.5t36.5 88t-36.5 88t-88.5 36.5q-33 0 -62 -16.5t-45.5 -45t-16.5 -62.5q0 -10 2 -20t5 -21l-294 -182q-36 36 -87 36q-25 0 -48 -10t-40 -26.5
t-26.5 -39.5t-9.5 -49q0 -51 36.5 -87.5t87.5 -36.5q37 0 68 20l312 -173q-5 -19 -5 -34q0 -25 10 -48t26.5 -39.5t40 -26.5t48.5 -10q34 0 62.5 16.5t45 45.5t16.5 62q0 52 -36.5 88.5t-87.5 36.5zM760 660q26 0 44.5 -18.5t18.5 -43.5q0 -13 -5 -24.5t-13.5 -20t-20 -13.5
t-24.5 -5q-16 0 -30.5 8.5t-23 23t-8.5 31.5q0 25 18.5 43.5t43.5 18.5zM200 286q0 13 5 24.5t13 20t20 13.5t24 5q26 0 44 -18.5t18 -44.5q0 -16 -8 -30.5t-22.5 -23t-31.5 -8.5q-26 0 -44 18.5t-18 43.5zM762 -87q-26 0 -44 18.5t-18 44t18 44t44 18.5t44 -18.5t18 -44
t-18 -44t-44 -18.5zM762 -87z" />
    <glyph glyph-name="uniE60F" unicode="&#xe60f;" 
d="M512 448q-13 0 -22.5 -9.5t-9.5 -22.5v-384q0 -13 9.5 -22.5t22.5 -9.5t22.5 9.5t9.5 22.5v384q0 13 -9.5 22.5t-22.5 9.5zM480 544q0 -13 9.5 -22.5t22.5 -9.5t22.5 9.5t9.5 22.5t-9.5 22.5t-22.5 9.5t-22.5 -9.5t-9.5 -22.5zM512 768q-98 0 -186.5 -38t-153 -102.5
t-102.5 -153t-38 -186.5t38 -186.5t102.5 -153t153 -102.5t186.5 -38t186.5 38t153 102.5t102.5 153t38 186.5t-38 186.5t-102.5 153t-153 102.5t-186.5 38zM512 -128q-172 0 -294 122t-122 294t122 294t294 122t294 -122t122 -294t-122 -294t-294 -122z" />
    <glyph glyph-name="uniE610" unicode="&#xe610;" 
d="M656 373h-446q-7 0 -12 -4.5t-5 -11.5q0 -5 2.5 -8.5t6 -5.5t8.5 -2h446q4 0 8 2t6 5.5t2 8t-2 8.5t-6 6t-8 2zM590 222h-315q-3 0 -6 -1.5t-5.5 -3.5t-3.5 -5t-1 -7q0 -2 0.5 -4t1.5 -4t2.5 -3.5t3.5 -2.5t4 -1.5t4 -0.5h315q5 0 8.5 2t5.5 6t2 8q0 7 -4.5 12t-11.5 5z
M909 708h-635q-20 0 -37.5 -10t-27 -27t-9.5 -36v-41q0 -6 3 -11.5t8.5 -9t12.5 -3.5q5 0 9.5 2t7.5 5t5 8t2 9v41q0 10 7.5 17t18.5 7h635q5 0 10 -2t8 -5t5 -7.5t2 -9.5v-390q0 -10 -7 -17t-18 -7h-39q-10 0 -17 -7t-7 -17.5t7 -17.5t17 -7h39q31 0 52.5 21.5t21.5 51.5
v390q0 30 -21.5 51.5t-52.5 21.5zM750 549h-635q-31 0 -52.5 -21.5t-21.5 -51.5v-390q0 -30 21.5 -51.5t52.5 -21.5h208l89 -134q8 -11 21 -11q4 0 7.5 1.5t7 4t5.5 5.5l89 134h208q27 0 48 18q26 22 26 55v390q0 20 -9.5 36.5t-27 26.5t-37.5 10zM776 86q0 -10 -9 -18
q-8 -6 -17 -6h-221q-13 0 -21 -11l-75 -114l-76 114q-4 5 -9 8t-12 3h-221q-11 0 -18 7t-7 17v390q0 10 7 17t18 7h635q7 0 13 -3t9.5 -9t3.5 -12v-390z" />
    <glyph glyph-name="uniE611" unicode="&#xe611;" 
d="M512 734q-90 0 -172 -35t-141.5 -94.5t-94.5 -141.5t-35 -172t35 -172.5t94.5 -141.5t141.5 -94t172 -35t172 35t141.5 94t94.5 141.5t35 172.5t-35 172t-94.5 141.5t-141.5 94.5t-172 35zM512 -93q-104 0 -192.5 51.5t-139.5 140t-51 192.5t51 192t139.5 139.5
t192.5 51.5t192.5 -51.5t139.5 -139.5t51 -192t-51 -192.5t-139.5 -140t-192.5 -51.5zM682 273l-158 43v269h-64v-316h3l189 -50z" />
    <glyph glyph-name="uniE612" unicode="&#xe612;" 
d="M512 693q-276 0 -512 -180l512 -630l512 628q-240 182 -512 182zM512 138l-181 181l60 60l121 -122l181 181l60 -60z" />
    <glyph glyph-name="uniE613" unicode="&#xe613;" 
d="M842 -98l-330 330l-330 -330q-2 -2 -5 -4t-5.5 -3.5t-5.5 -2.5h-6q-3 -1 -6 -1t-6 1h-6q-3 1 -5.5 2.5t-5.5 3.5t-5 4q-5 6 -8 13.5t-3 14.5t3 14.5t8 13.5l330 330l-330 330q-11 12 -11 28t11 28q8 7 18 10t20 0t18 -10l330 -330l330 330q12 11 28 11t27.5 -11.5
t11.5 -27.5t-11 -28l-330 -330l330 -330q11 -12 11 -28t-11.5 -27.5t-27.5 -11.5t-28 11z" />
    <glyph glyph-name="uniE614" unicode="&#xe614;" 
d="M341 683h169v-57h-169v57zM256 570h28q12 0 20.5 8.5t8.5 19.5v113q0 11 -8.5 19.5t-20.5 8.5h-28q-7 0 -13.5 -4t-10.5 -10.5t-4 -13.5v-113q0 -21 20 -27q5 -1 8 -1zM735 623v-277h56v317q0 8 -8.5 14t-19.5 6h-113v-40h57q22 0 27 -16q1 -3 1 -4zM566 570h28
q8 0 14.5 4t10 10.5t3.5 13.5v113q0 11 -8 19.5t-20 8.5h-28q-8 0 -14.5 -4t-10 -10.5t-3.5 -13.5v-113q0 -11 8 -19.5t20 -8.5zM116 -21v619q0 4 1 7.5t2.5 7t4 6t6 4t7 2.5t7.5 1h56v57h-113q-11 0 -19.5 -8.5t-8.5 -19.5v-732q0 -12 8.5 -20t19.5 -8h338v56h-281
q-12 0 -20 8t-8 20zM214 345h422q6 0 10 4t4 10v28q0 4 -2 7t-5 5t-7 2h-422q-4 0 -7 -2t-5 -5t-2 -7v-28q0 -6 4 -10t10 -4zM206 176q-6 0 -6 -14v-28q0 -14 6 -14h177q6 0 6 14v28q0 4 -0.5 7t-2 5t-3.5 2h-177zM544 -9zM1014 108q-14 40 -50 36q-3 0 -7.5 4.5t-5.5 9.5
l-10 26l-10 26q-5 13 -9.5 26t-9.5 26q-11 34 -44 43q-13 4 -27.5 7t-33.5 6.5t-27 5.5q-63 9 -129 0q-47 -7 -50 -8q-75 -14 -91 -75q-6 -22 -30 -84q-1 -4 -5.5 -8.5t-6.5 -4.5q-22 3 -33 -7.5t-18 -31.5q-2 -6 0 -15q7 -2 11.5 -3.5t10.5 -2.5l10 -3q-1 -11 -1 -41
t-0.5 -51t-0.5 -41q0 -5 -0.5 -17.5t-0.5 -19t0.5 -17t0.5 -18.5q1 -9 4 -19t7 -13q2 -3 23.5 -4t45 0t30.5 4q3 1 5.5 10.5t5 25t4.5 22.5h290q2 -4 2.5 -27t13.5 -31q5 -4 49 -3.5t47 4.5q2 1 3.5 4.5t3 7.5t2.5 8.5t1 8.5q1 61 0 169v7q0 4 -0.5 8t-1 7.5t-1.5 7.5t-1 7
q33 9 34 10q3 11 0 18zM595 7q-4 -10 -19 -14q-7 -1 -14.5 -1.5t-17.5 -0.5q-43 4 -46 5q-29 6 -20 45q5 23 31 15q19 -6 37.5 -13.5t37.5 -16.5q4 -2 8.5 -8.5t2.5 -10.5zM519 135q3 8 12.5 36.5t16 45.5t13.5 34q2 5 8.5 9.5t13.5 6.5q40 9 61 9q44 0 89.5 -1.5t97.5 -3.5
q39 -2 50 -41q2 -7 30 -95q-192 -42 -392 0zM937 -3q-3 -1 -47 -6q-5 0 -11.5 0.5t-10.5 0.5t-9.5 0.5t-9.5 1.5q-11 3 -13.5 13t7.5 15q39 19 90 35q9 3 15 -3.5t6 -16.5q0 -2 0.5 -8t0.5 -8.5t-1 -7.5t-2.5 -7.5t-5.5 -5t-9 -3.5z" />
    <glyph glyph-name="uniE615" unicode="&#xe615;" 
d="M590 201q0 36 19.5 86t43.5 91t43.5 84.5t19.5 67.5q0 59 -42.5 101.5t-102 42.5t-101.5 -42.5t-42 -101.5q0 -26 19.5 -70t43 -84t43 -89.5t19.5 -85.5h37zM509 530q0 26 18.5 44.5t44.5 18.5t44.5 -18.5t18.5 -44.5t-18.5 -45t-44.5 -19t-44.5 19t-18.5 45zM747 600
q3 -7 5 -14l4 -16q2 -7 3 -14.5t1 -15.5l81 40v-554l-122 -61l-35 15q-30 165 -172 165q-5 0 -16 -4.5t-18.5 -4.5t-25.5 7q-16 10 -28.5 30t-19 37.5t-25 31.5t-47.5 16q-58 58 -149 61v267l126 -54l4 -2h4l4 -2h3.5t3.5 -0.5t4 -0.5q15 0 27 7l25 12q3 43 25 80l-77 -39
l-209 90v-359v-329l209 -90l180 90l179 -77l30 -13l180 90v688z" />
    <glyph glyph-name="uniE616" unicode="&#xe616;" 
d="M742 -91l-376 381l373 378q12 11 12 28t-11.5 29t-28.5 12t-29 -12l-393 -397q-5 -6 -8 -13t-3 -14q-13 -27 8 -48l398 -403q12 -12 29 -12t29 12t12 29.5t-12 29.5z" />
    <glyph glyph-name="uniE617" unicode="&#xe617;" 
d="M150 772h724q39 0 72 -14t52 -39t19 -54v-541q0 -45 -41.5 -76t-101.5 -31h-362l-286 -213l16 213h-92q-60 0 -101.5 31t-41.5 76v541q0 45 41.5 76t101.5 31zM795.5 315q36.5 0 62.5 26t26 62q0 18 -7 34.5t-19 28.5t-28 18.5t-34 6.5t-34.5 -6.5t-28.5 -18.5t-19 -28.5
t-7 -34.5q0 -36 26 -62t62.5 -26zM607 403.5q0 36.5 -26 62.5t-62 26q-15 0 -28.5 -4.5t-24 -13t-19 -19t-13 -24t-4.5 -28.5q0 -36 26 -62t62.5 -26t62.5 26t26 62.5zM235 316q24 0 44.5 12t32.5 32.5t12 44.5q0 36 -26 62t-63 26q-10 0 -20 -2.5t-18.5 -7t-16 -10.5
t-13.5 -13.5t-10.5 -16t-7 -18.5t-2.5 -20q0 -37 26 -63t62 -26z" />
    <glyph glyph-name="uniE618" unicode="&#xe618;" 
d="M211 379q-38 0 -64.5 -26.5t-26.5 -64.5t26.5 -64.5t64.5 -26.5t65 26.5t27 64.5t-27 64.5t-65 26.5zM503 379q-38 0 -65 -26.5t-27 -64.5t27 -64.5t65 -26.5t64.5 26.5t26.5 64.5t-26.5 64.5t-64.5 26.5zM813 379q-38 0 -65 -26.5t-27 -64.5t27 -64.5t65 -26.5
t64.5 26.5t26.5 64.5t-26.5 64.5t-64.5 26.5z" />
    <glyph glyph-name="uniE619" unicode="&#xe619;" 
d="M989 -167l-133 133q33 35 51.5 79.5t18.5 94.5q0 94 -61 165q2 18 3.5 35t1.5 35q0 117 -57.5 216.5t-157 157.5t-216.5 58q-166 0 -289 -111q-119 -107 -139 -265q-4 -28 -4 -56q0 -117 57.5 -216.5t157 -157.5t217.5 -58q7 0 13.5 0.5t13.5 1t13.5 1t13.5 1.5l14 2
q71 -62 166 -62q82 0 148 48l135 -134q7 -7 16.5 -7.5t16.5 5.5q7 7 7 17t-7 17zM264 725q-10 -21 -18 -42.5t-15 -44t-12 -45.5q-70 -18 -133 -48q58 120 178 180zM418 578v-182h-184q1 82 19 161q80 19 165 21zM63 486q34 18 70.5 33t74.5 26q-14 -73 -16 -149h-144
q2 46 15 90zM48 354h144q2 -78 17 -153q-76 21 -144 55q-15 48 -17 98zM88 200q63 -28 131 -45q17 -68 45 -130q-117 58 -176 175zM418 -16q-50 3 -98 18q-35 67 -56 143q76 -15 154 -16v-145zM253 190q-9 39 -13.5 80.5t-5.5 83.5h184v-184q-84 2 -165 20zM418 765v-144
q-78 -1 -154 -17q21 76 56 144q48 15 98 18v-1zM830 396h-145q-2 76 -17 150q78 -23 146 -60q7 -22 10.5 -44.5t5.5 -45.5zM830 354q-1 -7 -1 -14q-10 8 -21 14h22zM791 545q-32 15 -65.5 27t-68.5 22q-18 70 -48 134q40 -20 74 -47t61.5 -61.5t46.5 -74.5zM459 396v182
q83 -2 162 -20q19 -80 21 -162h-183zM537 354q-47 -30 -78 -77v77h78zM549 751q38 -69 60 -146q-73 15 -150 16v144v1q16 -1 31 -3t30 -5t29 -7zM459 -16v19q6 -9 13 -18q-6 -1 -13 -1zM673.5 -74q-86.5 0 -147.5 61t-61 147.5t61 147.5t147.5 61t147.5 -61t61 -147.5
t-61 -147.5t-147.5 -61z" />
    <glyph glyph-name="uniE61A" unicode="&#xe61a;" 
d="M896 339h-326v326q0 12 -6 22t-16 15.5t-21 5.5q-18 0 -30.5 -12.5t-12.5 -30.5v-326h-326q-6 0 -11.5 -1.5t-10.5 -4t-9 -6.5t-6.5 -9t-4 -10.5t-1.5 -11.5q0 -18 12.5 -30.5t30.5 -12.5h326v-326q0 -12 5.5 -21.5t15.5 -15.5t22 -6q9 0 16.5 3.5t13.5 9t9.5 13.5
t3.5 17v326h326q5 0 10 1.5t9 3.5t8 5t6.5 6.5t5 8t3.5 9t1 9.5q0 12 -6 22t-15.5 15.5t-21.5 5.5zM532 655z" />
    <glyph glyph-name="uniE61B" unicode="&#xe61b;" 
d="M976 168l-10 -10l-2 -4l-4 -2l-2 -3l-4 -4q-2 -2 -4 -3l-96 96q1 1 2.5 2t3.5 2l2 4q2 1 4 2.5t3 2.5q9 8 14 13q14 12 30 11q8 -1 14.5 -3t11.5 -5q11 -5 24 -20q14 -14 20 -30q1 -2 1.5 -4.5t1.5 -5.5t1 -6t1 -6q0 -7 -2.5 -13.5t-9.5 -13.5v0zM802 -6l-79 -78
q-7 -8 -13 -14l-13 -13l-12 -13q-5 -4 -13 -10q-2 -1 -4 -2.5t-4.5 -3t-4.5 -2.5q-6 -3 -21 -9q-5 -1 -10 -3t-9.5 -3.5t-9.5 -2.5q-15 -5 -28 -8q-7 -2 -12 -3t-9 -2q-7 -1 -11.5 0t-6.5 4q-5 5 -2 19l4 20l8 28q2 6 3 10t2.5 8.5t3.5 8.5q4 12 6 17q7 15 18 26l15 15
l28 28q17 17 38 39q22 22 40 41q51 51 110 109l96 -95zM707 585q0 8 -3.5 14.5t-10 10.5t-14.5 4h-56v56h112q8 0 14.5 -4t10 -10.5t3.5 -13.5v-383l-56 -62v388zM566 557h-28q-11 0 -19.5 8.5t-8.5 19.5v113q0 12 8.5 20t19.5 8h28q12 0 20 -8t8 -20v-113q0 -5 -2 -10.5
t-6 -9t-9 -6t-11 -2.5zM313 670h169v-56h-169v56zM257 557h-28q-12 0 -20.5 8.5t-8.5 19.5v113q0 12 8.5 20t20.5 8h28q11 0 19.5 -8t8.5 -20v-113q0 -11 -8.5 -19.5t-19.5 -8.5zM88 585v-619q0 -11 8 -19.5t20 -8.5h356l-51 -56h-361q-8 0 -14.5 3.5t-10 10t-3.5 14.5v732
q0 7 3.5 13.5t10 10.5t14.5 4h112v-56h-56q-12 0 -20 -8.5t-8 -20.5v0zM623 121q0 -2 -1 -4l-2 -4q-1 -2 -3 -3.5t-4 -2t-4 -0.5h-423q-2 0 -5 1t-4.5 3t-3 4.5t-1.5 5.5v28q0 3 1.5 5.5t3 4.5t4.5 3t5 1h423q5 0 9.5 -4t4.5 -10v-28zM609 332h-423q-5 0 -9.5 4t-4.5 10v28
q0 6 4.5 10t9.5 4h423q5 0 9.5 -4t4.5 -10v-28q0 -6 -4.5 -10t-9.5 -4v0z" />
    <glyph glyph-name="uniE61C" unicode="&#xe61c;" 
d="M413 151l223 112q8 4 12 11t4 14t-4 14t-12 11l-223 112q-14 7 -27.5 -1t-13.5 -24v-224q0 -16 13.5 -24t27.5 -1zM876 624h-728q-35 0 -59.5 -25t-24.5 -60v-502q0 -18 6.5 -33.5t18 -26.5t27 -18t32.5 -7h728q35 0 59.5 25t24.5 60v502q0 18 -6.5 33.5t-18 26.5t-27 18
t-32.5 7zM232 36q0 -11 -8 -19.5t-20 -8.5h-55q-12 0 -20.5 8t-8.5 20v56q0 4 1.5 8.5t4 8t6 6t8 4t9.5 1.5h55q12 0 20 -8t8 -20v-56zM232 260q0 -5 -2 -10.5t-6 -9.5t-9 -6t-11 -2h-55q-12 0 -20.5 8t-8.5 20v56q0 12 8 20t21 8h55q12 0 20 -8t8 -20v-56zM232 484
q0 -6 -2 -11t-6 -9t-9 -6t-11 -2h-55q-12 0 -20.5 8t-8.5 20v56q0 11 8 19.5t21 8.5h55q6 0 11 -2t9 -6t6 -9t2 -11v-56zM736 8h-448v560h448v-560zM904 36q0 -11 -8 -19.5t-21 -8.5h-55q-6 0 -11 2t-9 6t-6 9t-2 11v56q0 6 2 11t6 9t9 6t11 2h56q11 0 19.5 -8t8.5 -20v-56z
M904 260q0 -12 -8 -20t-21 -8h-55q-12 0 -20 8t-8 20v56q0 12 8 20t20 8h56q5 0 10.5 -2t9 -6t6 -9t2.5 -11v-56zM904 484q0 -12 -8 -20t-21 -8h-55q-12 0 -20 8t-8 20v56q0 11 8 19.5t20 8.5h56q5 0 10.5 -2t9 -6t6 -9t2.5 -11v-56z" />
    <glyph glyph-name="uniE61D" unicode="&#xe61d;" 
d="M893 -36l-173 174q-3 3 -6 5t-7 3q71 89 71 203q0 66 -26 126.5t-70 104.5t-104.5 69.5t-126.5 25.5q-89 0 -164 -43.5t-119 -118.5t-44 -164t44 -164t119 -119t164 -44q114 0 203 71q1 -4 3 -7t5 -6l173 -173q12 -12 29 -12t29 12q6 6 9 13.5t3 15t-3 15.5t-9 13z
M451 104q-101 0 -173 71.5t-72 173.5q0 50 19.5 95t52.5 78t78 52.5t95 19.5q25 0 49.5 -5t46 -14.5t41.5 -23t36.5 -29.5t30 -36t22.5 -42t14 -46t5 -49q0 -67 -33 -123.5t-89 -89t-123 -32.5z" />
    <glyph glyph-name="uniE61E" unicode="&#xe61e;" 
d="M958 6q0 -31 -22 -52.5t-52 -21.5h-744q-31 0 -52.5 22t-21.5 52v564q0 31 22 52.5t52 21.5h743q20 0 37 -10t27 -27t10 -37v-564h1zM140 586q-15 0 -15 -15v-565q0 -4 2 -7.5t5.5 -5.5t7.5 -2h743q6 0 10.5 4.5t4.5 10.5v564q0 4 -2 7.5t-5.5 5.5t-7.5 2h-743v1z
M274 347q-37 0 -63 26t-26 63t26 63.5t63 26.5t63 -26t26 -63q0 -18 -7 -34.5t-19 -28.5t-28.5 -19.5t-34.5 -7.5zM839 50h-654v90l149 149l74 -74l238 237l193 -194v-208h-1h1z" />
    <glyph glyph-name="uniE61F" unicode="&#xe61f;" 
d="M512 713q17 0 23 -14l108 -228q5 -9 13.5 -15.5t19.5 -8.5l248 -38q7 -1 12.5 -5.5t7.5 -10.5q1 -4 1 -8.5t-1.5 -8.5t-4.5 -7l-182 -184q-16 -16 -12 -38l42 -256q2 -14 -10 -23q-7 -5 -15 -5q-7 0 -13 3l-216 119q-11 5 -21 5q-5 0 -10.5 -1.5t-10.5 -3.5l-216 -119
q-1 0 -2.5 -1t-3.5 -1t-3.5 -0.5t-3.5 -0.5q-8 0 -15 5q-12 9 -10 23l42 256q4 22 -12 38l-182 184q-10 11 -5 24q5 14 20 16l248 38q11 2 19.5 8.5t13.5 15.5l108 228q6 14 23 14zM512 757q-13 0 -25.5 -5t-22 -13.5t-14.5 -20.5l-108 -228l-248 -37q-10 -1 -18.5 -5
t-15.5 -10t-12.5 -14t-8.5 -17q-13 -39 16 -69l182 -184l-42 -256q-4 -19 4 -37t24 -29q18 -13 39 -13q18 0 34 9l216 118l216 -118q4 -3 8 -4.5t8.5 -2.5t8.5 -1.5t9 -0.5q7 0 13.5 1.5t13 4t12.5 7.5q8 5 14 12.5t10 16.5t5 18.5t-1 18.5l-42 256l182 184q29 30 16 69
q-3 9 -8.5 17t-12.5 14t-15.5 10t-18.5 5l-248 37l-108 228q-21 37 -62 39v0z" />
    <glyph glyph-name="uniE620" unicode="&#xe620;" 
d="M237 280q19 -58 54 -89t71.5 -31t71.5 31t54 89q13 7 24 24.5t13 33.5q8 54 -22 54q-2 40 -17 69.5t-46 49t-76 19.5q-66 0 -102.5 -36.5t-40.5 -101.5q-29 0 -22 -54q1 -11 7 -22.5t14 -21.5t17 -14zM545 151l-59 12l-124 -246l-123 246l-60 -12q-61 -13 -100 -59.5
t-39 -106.5v-167h644v167q0 40 -17.5 74.5t-49.5 58.5t-72 33zM746 758q-98 0 -167 -59.5t-69 -143.5q0 -46 22.5 -86.5t61.5 -69.5l27 -80q3 -11 13.5 -15t20.5 1l91 46q65 0 119.5 27.5t86 74t31.5 102.5q0 41 -18.5 79t-50.5 65t-75.5 43t-92.5 16zM705 456q0 20 16 28.5
t32 0.5t16 -29q0 -20 -16 -28.5t-32 0t-16 28.5zM762 505h-47q-1 9 -0.5 17t2.5 15.5t6.5 15.5t11.5 17q19 22 20 36.5t-9.5 18.5t-25 2t-25.5 -10l-12 39q16 9 37.5 12.5t41.5 0t34 -17t14 -36.5q0 -15 -5 -26t-12 -18.5t-14 -15.5t-12 -20.5t-5 -29.5v0z" />
    <glyph glyph-name="uniE621" unicode="&#xe621;" 
d="M323 465q28 18 45.5 46.5t17.5 63.5q0 20 -6.5 39.5t-18.5 35t-27.5 27.5t-34.5 18t-40 6q-53 0 -90 -37t-37 -89q0 -36 17 -65t46 -45q-52 -19 -88 -61.5t-44 -97.5h390q-3 18 -9 36t-15 33t-20 29t-24.5 25.5t-29 20.5t-32.5 15zM831 33q28 18 45 47t17 63q0 53 -37 90
t-89 37q-26 0 -49.5 -10t-40.5 -27t-27 -40.5t-10 -49.5q0 -23 7.5 -44.5t22 -38t33.5 -27.5q-53 -18 -88.5 -60.5t-43.5 -97.5h390q-4 27 -15.5 52.5t-28.5 45.5t-39 35.5t-47 24.5zM488 599h173v-47h-173v47zM359 -78h173v-47h-173v47zM819 426h46v173h-172v-47h126v-126z
M187 48h-46v-173h172v47h-126v126zM141 270h46v-173h-46v173zM411 599h46v-47h-46v47zM819 385h46v-79h-46v79z" />
    <glyph glyph-name="uniE622" unicode="&#xe622;" 
d="M512 757q-20 0 -37 -10.5t-25 -28.5l-108 -228l-248 -37q-19 -3 -34 -15.5t-21 -30.5t-2 -36.5t18 -32.5l182 -184l-42 -256q-3 -13 0 -25.5t10 -23t18 -17.5q18 -13 39 -13q9 0 17.5 2t16.5 7l216 118l216 -118q8 -5 16.5 -7t17.5 -2q21 0 39 13q8 5 14 12.5t10 16.5
t5 18.5t-1 18.5l-42 256l182 184q29 30 16 69q-6 18 -21 30.5t-34 15.5l-248 37l-108 228q-21 37 -62 39v0z" />
    <glyph glyph-name="uniE623" unicode="&#xe623;" 
d="M526 598h153v-46h-153v46zM378 -78h172v-46h-172v46zM837 426h47v172h-173v-46h126v-126zM206 48h-46v-172h172v46h-126v126zM160 270h46v-173h-46v173zM837 385h47v-97h-47v97zM477 413h-432v288h432v-288zM279 368h-35v47h35v-47zM373 326h-226v42h226v-42zM979 -38
h-432v288h432v-288zM781 -84h-35v48h35v-48zM875 -125h-226v42h226v-42z" />
    <glyph glyph-name="uniE624" unicode="&#xe624;" 
d="M194 8zM885 181q-21 58 -73 52q-49 -5 -51 -6q-2 0 -6 -1t-7 -2l-8 -2q-3 -1 -5 -2h-2q-282 -61 -576 0q51 145 62 171q6 16 32 23q6 1 19.5 4.5t20 5t17 2.5t21.5 1h1h2h4h8q-1 2 -3 8l-5 15q-3 9 -5 19t-2 17v9q-34 -5 -51 -8q-53 -11 -87 -36.5t-48 -75.5
q-8 -32 -43 -123q-2 -6 -8 -12.5t-10 -6.5q-31 4 -48 -11t-27 -46q-2 -9 0 -23q35 -9 47 -12q-3 -171 -3 -196q-1 -84 1 -106q3 -38 16 -47q3 -4 34.5 -6t65.5 0t44 6q3 1 4.5 4.5t3.5 9t3.5 12t3 14.5t3 15.5t3 15.5t3.5 14h426q6 -16 3.5 -30t1.5 -30t18 -25q7 -6 72 -5.5
t69 7.5q3 2 6.5 9t6 16.5t2.5 16.5q2 90 0 249q0 3 -6 54q45 13 50 14q2 7 2 12.5t-2 15.5zM269 32q-1 -4 -6 -8.5t-10.5 -7.5t-11.5 -4q-10 -3 -21.5 -3.5t-25.5 -0.5q-63 6 -68 7q-42 9 -29 67q8 34 46 22q52 -17 110 -44q6 -3 12 -13t4 -15zM772 17q-9 -2 -19 -3.5
t-17.5 -2.5t-17.5 -1.5t-16 -1.5q-7 0 -20 1t-22 1.5t-17 2.5q-11 3 -17 11t-4 16.5t11 13.5q57 28 133 51q13 4 21.5 -5t9.5 -24q0 -3 0.5 -12t0.5 -12.5t-1 -11t-4 -11t-8 -7t-13 -5.5zM1009 198l-145 145q-2 2 -4.5 4t-5.5 3q58 74 58 168q0 113 -79.5 193t-192 80
t-192.5 -80t-80 -192.5t80 -192.5t192 -80q95 0 169 59q3 -6 7 -11l144 -144q10 -10 24.5 -10t24.5 10t10 24t-10 24zM640.5 314q-84.5 0 -144.5 60t-60 144q0 42 16.5 80t43.5 65t65 43.5t79 16.5q85 0 144.5 -60t59.5 -144.5t-59.5 -144.5t-144 -60z" />
    <glyph glyph-name="uniE625" unicode="&#xe625;" 
d="M939 10h-599l-169 -168v168h-86q-35 0 -60 25t-25 60v554q0 18 7 33.5t18.5 27t27 18t32.5 6.5h854q11 0 22 -3t20.5 -8.5t17.5 -13t13.5 -17t8.5 -20.5t3 -23v-554q0 -35 -25 -60t-60 -25zM981 649q0 18 -12.5 30.5t-29.5 12.5h-854q-17 0 -29.5 -12.5t-12.5 -30.5v-554
q0 -17 12.5 -29.5t29.5 -12.5h128v-109l109 109h617q8 0 16 3.5t13.5 9t9 13.5t3.5 16v554zM512 330q-12 0 -21.5 5.5t-15.5 15.5t-6 21q0 18 12.5 30.5t30.5 12.5t30.5 -12.5t12.5 -30.5q0 -11 -6 -21t-15.5 -15.5t-21.5 -5.5zM341 330q-17 0 -29.5 12.5t-12.5 29.5
q0 12 5.5 21.5t15.5 15.5t21 6q18 0 30.5 -12.5t12.5 -30.5q0 -11 -5.5 -21t-15.5 -15.5t-22 -5.5zM679 330q-18 0 -30.5 12.5t-12.5 30t12.5 30t30 12.5t30 -12.5t12.5 -30.5q0 -11 -5.5 -21t-15.5 -15.5t-21 -5.5z" />
    <glyph glyph-name="uniE626" unicode="&#xe626;" 
d="M835 734h-641q-53 0 -90 -27.5t-37 -67.5v-479q0 -39 37 -67t90 -28h320l254 -188l-14 188h81q53 0 90 28t37 67v479q0 40 -37 67.5t-90 27.5zM263.5 329q-32.5 0 -55.5 23t-23 55.5t23 55.5t55.5 23t55.5 -23t23 -55.5t-23 -55.5t-55.5 -23zM431 408q0 15 6 29.5
t16.5 25t25 17t30.5 6.5t30.5 -6.5t24.5 -17t16.5 -25t6.5 -29.5q0 -10 -2 -18.5t-6 -16.5t-9.5 -14.5t-12 -12t-14.5 -9t-16.5 -6t-17.5 -2.5q-21 0 -39 10.5t-28.5 28.5t-10.5 40zM760 331q-33 0 -56 22.5t-23 55.5q0 46 40 68q19 9 39 10q32 0 55 -23t23 -55
q0 -16 -6.5 -30.5t-17 -25t-25 -16.5t-29.5 -6z" />
    <glyph glyph-name="uniE627" unicode="&#xe627;" 
d="M508.5 726q91.5 0 174.5 -35.5t143 -95.5t95.5 -143t35.5 -174q0 -73 -23 -141.5t-64.5 -123.5t-96.5 -96.5t-123 -64t-141 -22.5t-141.5 22.5t-123.5 64t-96.5 96.5t-64.5 123.5t-23 141.5q0 91 35.5 174t95.5 143t143 95.5t174.5 35.5zM538 123q0 14 1 25.5t2 20.5
t3 16q5 18 15.5 33t45.5 45q51 46 69 77.5t18 69.5q0 65 -50.5 111t-134.5 46q-80 0 -128.5 -43t-58.5 -123l73 -9q5 30 14.5 52t25.5 37q30 28 75 28q47 0 79 -31.5t32 -72.5q0 -23 -11 -42t-48 -51q-9 -9 -16.5 -16t-14 -13t-11.5 -11.5t-8 -9.5q-20 -23 -28 -46
q-12 -30 -12 -72v-5v-7v-9h68zM546 -18v80h-80v-80h80z" />
    <glyph glyph-name="uniE628" unicode="&#xe628;" 
d="M676 472h146l-219 264l-219 -264h146v-190h-328v-442h146v291h219v1h109v340z" />
    <glyph glyph-name="uniE629" unicode="&#xe629;" 
d="M845 405q0 -51 -36 -130.5t-80 -147t-101 -143.5t-80 -103.5t-36 -42.5q-14 16 -36 43t-79.5 103t-101.5 143.5t-80 147t-36 130.5q0 91 44.5 167.5t121.5 121t167 44.5t167 -44.5t121.5 -121t44.5 -167.5zM642 414q0 54 -38 92t-92 38t-92 -38t-38 -92q0 -35 17.5 -65
t47.5 -47.5t65 -17.5t65 17.5t47.5 47.5t17.5 65z" />
    <glyph glyph-name="uniE62A" unicode="&#xe62a;" 
d="M199 423h-94q-17 0 -29 -12t-12 -29v-501q0 -17 12 -29t29 -12h94q17 0 29 12t12 29v501q0 11 -5.5 20.5t-15 15t-20.5 5.5zM915 415h-1q-21 6 -63 7t-263 1q17 50 21 75.5t4 78.5q0 9 -0.5 17.5t-2 16t-3.5 15t-4 13.5t-4.5 12.5t-5 11.5t-5.5 9.5t-5 8.5t-5 7
q-33 48 -66 48q-9 0 -17 -3.5t-13 -9.5t-8 -13.5t-3 -14.5q0 -22 -10 -48t-31 -59t-36 -54t-42 -57q-7 -9 -18 -23l-16 -21q-6 -7 -13.5 -17.5t-11 -16.5t-7.5 -13t-5.5 -12.5t-1.5 -9.5v-467l8 -2q20 -6 144 -34v-1q90 -20 176 -20h171q47 0 65 32q26 38 53 112
q55 151 63 349v8l1 13q0 12 -4 23.5t-15 22.5t-26 15z" />
    <glyph glyph-name="uniE62B" unicode="&#xe62b;" 
d="M909 287q44 -51 1 -99l-306 -307q-5 -4 -10 -6.5t-11 -4.5t-11.5 -2.5t-11.5 0t-11.5 1.5t-11.5 3q-10 4 -17 11q-110 111 -197 199l-73 74q-10 9 -18 18l-17 16l-15 16l-15 14q-14 14 -25.5 26t-20.5 20l-19 19q-2 2 -6 9q-2 3 -4.5 7t-5.5 9q-4 11 -8 23.5t-4 27.5v18
v35q1 21 1 45v13q0 6 0.5 12t0.5 12v13q1 61 2 134q1 11 3.5 23t12.5 23q11 10 23 13q12 4 22 4h300q2 1 14 0q6 0 9.5 -0.5t5.5 -1.5q6 -2 13 -7t12 -10zM236 504q25 0 43 18t18 43.5t-18 43.5t-43 18q-7 0 -13 -1t-11.5 -3.5t-10.5 -5.5t-9 -8q-18 -18 -18 -43.5t18 -43.5
q9 -9 20 -13.5t24 -4.5z" />
    <glyph glyph-name="uniE62C" unicode="&#xe62c;" 
d="M819 516h-637q-9 0 -17 4.5t-12.5 12t-4.5 17.5q0 14 10 24t24 10h637q14 0 24 -10t10 -24t-10 -24t-24 -10zM592 607h-182q-4 0 -8 0.5t-7.5 2.5t-6.5 4t-5 5t-4 6.5t-3 7.5t-1 8q0 9 5 17t12.5 12.5t17.5 4.5h182q9 0 17 -4.5t12.5 -12.5t4.5 -17q0 -14 -10 -24
t-24 -10zM375 49v341q0 15 10 25t25 10q7 0 13 -3t10.5 -7.5t7.5 -11t3 -13.5v-341q0 -14 -10 -24t-24.5 -10t-24.5 10t-10 24zM558 49v341q0 15 10 25t24 10q7 0 13 -3t10.5 -7.5t7.5 -11t3 -13.5v-341q0 -14 -10 -24t-24 -10t-24 10t-10 24zM262 379v-387q0 -19 13 -32
t32 -13h387q12 0 22.5 6t17 16.5t6.5 22.5v455h68v-478q0 -9 -2 -18t-5.5 -17t-8.5 -15.5t-11 -13.5t-13.5 -11t-15.5 -8.5t-17 -5.5t-18 -2h-433q-37 0 -64 27t-27 64v478h69v-68z" />
    <glyph glyph-name="uniE62D" unicode="&#xe62d;" 
d="M869 275v-353q0 -5 -3 -8t-8 -3h-705q-3 0 -5 0.5t-3.5 2t-2.5 4t-1 4.5v706q0 2 1 4t2.5 3.5t3.5 2.5t5 1h353q7 0 14 4t10.5 10.5t3.5 14t-3.5 14t-10.5 10.5t-14 4h-353q-19 0 -34.5 -9t-24.5 -25t-9 -34v-706q0 -28 19.5 -48t48.5 -20h705q28 0 48 20t20 48v353
q0 12 -8 20.5t-20 8.5t-20.5 -8.5t-8.5 -20.5v0zM321 248l-35 -126q-1 -6 0 -11.5t3.5 -10.5t7 -8.5t9.5 -4.5q12 -3 22 2.5t13 17.5l35 126q1 5 1 9t-1.5 8.5t-4.5 8t-6.5 6t-8.5 3.5q-11 3 -21.5 -3t-13.5 -17zM323 86l148 26q12 2 19 12t4.5 21.5t-12 18t-20.5 4.5
l-149 -26q-11 -2 -18 -11.5t-5 -21t12 -18.5t21 -5zM373 225l437 436q11 11 22 0l46 -46q3 -3 4 -7t0 -8t-4 -7l-427 -428q-6 -6 -8 -13t0 -14.5t8 -13.5q8 -8 20 -8t20 9l427 428q21 21 21 51t-21 51l-46 46q-21 21 -51 21t-51 -21l-437 -436q-8 -8 -8 -20t8 -20.5t20 -8.5
t20 9v0z" />
    <glyph glyph-name="uniE62E" unicode="&#xe62e;" 
d="M128 736v-896l384 168l384 -168v896h-768zM665 123l-153 72l-153 -72l21 169l-115 124l165 33l82 149l82 -150l166 -32l-116 -124z" />
    <glyph glyph-name="uniE62F" unicode="&#xe62f;" 
d="M881 -99h-699h-39q-32 0 -54.5 22.5t-22.5 54.5v523q0 32 22.5 54.5t54.5 22.5h165l49 78q0 7 14.5 13t24.5 6h232q6 0 15 -2.5t16.5 -7t7.5 -9.5l49 -78h165q32 0 54.5 -22.5t22.5 -54.5v-523q0 -32 -22.5 -54.5t-54.5 -22.5zM512 501q-104 0 -178 -74t-74 -178
t74 -177.5t178 -73.5t178 73.5t74 177.5q0 105 -74 178.5t-178 73.5zM512 75q-72 0 -123.5 51t-51.5 123t51.5 123t123.5 51t123.5 -51t51.5 -123t-51.5 -123t-123.5 -51z" />
    <glyph glyph-name="uniE630" unicode="&#xe630;" 
d="M465 196q67 -52 153 -46.5t147 67.5q67 67 67 162t-67 162q-26 27 -59 43.5t-68 21.5t-70 0t-68 -21.5t-59 -43.5q-62 -61 -67.5 -147t46.5 -153l-78 -78l-105 105l-45 -45l105 -105l-105 -105l45 -45l105 105l105 -105l45 44l-105 106zM486 262q-32 31 -43.5 74t0 85.5
t43.5 74.5q48 49 117 49t117.5 -48.5t48.5 -117.5t-49 -117q-16 -16 -35.5 -27t-39.5 -16.5t-42 -5.5t-42.5 5.5t-39.5 16.5t-35 27z" />
    <glyph glyph-name="uniE631" unicode="&#xe631;" 
d="M604 335l165 165v-86h63v150v45l-194 -1v-63h86l-165 -165q-67 52 -153 46t-147 -67q-67 -67 -67 -162t67 -162.5t162 -67t163 67.5q61 61 66.5 147t-46.5 153zM303.5 79.5q-48.5 48.5 -48.5 117.5t48.5 117.5t117.5 48.5t117.5 -48.5t48.5 -117.5t-48.5 -117.5
t-117.5 -48.5t-117.5 48.5z" />
    <glyph glyph-name="uniE632" unicode="&#xe632;" 
d="M797 707h-570q-36 0 -67 -18t-49 -49t-18 -67v-570q0 -55 39.5 -94.5t94.5 -39.5h570q55 0 94.5 39.5t39.5 94.5v570q0 36 -18 67t-49 49t-67 18zM769 326q-2 -5 -4 -10.5t-5 -10.5t-6 -9q-7 -12 -17 -23l-1 -1l-223 -216l-225 215q-11 12 -19 25.5t-14 28.5q-9 25 -9 59
q0 62 44.5 99t109.5 37q53 0 112 -63q26 27 54.5 45t57.5 18q65 0 109.5 -37t44.5 -99q0 -5 -0.5 -11t-1.5 -12l-2 -12l-2 -12q-1 -6 -3 -11z" />
    <glyph glyph-name="uniE633" unicode="&#xe633;" 
d="M244 381.5q0 -105.5 74.5 -180.5t180.5 -75q30 0 58.5 7t53.5 19.5t47.5 30t40 39.5t30 47t19 54t6.5 58.5t-6.5 58.5t-19 54t-30 47t-40 39.5t-47.5 30t-53.5 19.5t-58.5 7q-106 0 -180.5 -75t-74.5 -180.5zM808 214q44 79 44 170q0 48 -12.5 93.5t-35.5 84t-55.5 71
t-71 55.5t-84 35.5t-93.5 12.5q-96 0 -177 -47t-128 -128t-47 -177q0 -99 53 -185l-179 -178l160 -22l21 -159l205 204q46 -12 92 -12q56 0 111 18l210 -210l21 159l160 22zM249 -70l-12 125l-124 11l106 106q61 -80 155 -116zM501 86q-123 0 -210.5 87t-87.5 210
q0 81 40 149.5t108.5 108.5t149.5 40q49 0 94 -15t82 -42.5t64.5 -64t42.5 -82t15 -94.5q0 -123 -87.5 -210t-210.5 -87zM787 55l-12 -125l-132 133q92 41 148 123l120 -120z" />
    <glyph glyph-name="uniE634" unicode="&#xe634;" 
d="M102 277q0 -39 27.5 -66.5t66.5 -27.5q19 0 36.5 7.5t30 20t20 30t7.5 36.5q0 39 -27.5 66.5t-66.5 27.5q-15 0 -29.5 -4.5t-26 -13t-20 -20.5t-13.5 -26t-5 -30zM422 569q-1 1 -4 3t-12.5 5.5t-21.5 3.5q-21 0 -36.5 -15.5t-15.5 -37.5q0 -14 7 -25.5t14.5 -16.5
t15.5 -7q33 -22 57.5 -52.5t38 -69t13.5 -79.5q0 -63 -29.5 -116t-80.5 -86q-3 -1 -5.5 -2t-5.5 -2.5t-6 -3.5t-6 -5t-5 -6.5t-4 -8t-3 -10t-1 -11.5q0 -22 15.5 -37t36.5 -15q12 0 21.5 2.5t12.5 5.5l4 3q48 31 84 75.5t56.5 100t20.5 116.5q0 90 -43.5 167t-117.5 124z
M646 762q0 1 -1.5 1t-6 1.5t-9 2t-11.5 1.5t-14 1q-11 0 -20.5 -3.5t-17 -9t-13.5 -13.5t-9 -17.5t-3 -19.5q0 -16 22 -33.5t45 -28.5q67 -68 104.5 -157t37.5 -189q0 -108 -45 -204.5t-124 -165.5q-18 -7 -29 -22.5t-11 -35.5q0 -26 18.5 -44.5t44.5 -18.5q28 0 45 9
q106 85 166 208t60 264q0 142 -61 265.5t-168 208.5z" />
    <glyph glyph-name="uniE635" unicode="&#xe635;" 
d="M102 277.5q0 25.5 12.5 47t34.5 34t47 12.5q39 0 66.5 -27.5t27.5 -66.5t-27.5 -66.5t-66.5 -27.5q-25 0 -47 13t-34.5 34.5t-12.5 47zM422 569q-1 1 -4 3t-12.5 5.5t-21.5 3.5q-21 0 -36.5 -15.5t-15.5 -37.5q0 -21 12 -33t25 -16q50 -33 79.5 -86t29.5 -115.5
t-29.5 -115.5t-80.5 -86q-36 -11 -36 -49q0 -14 7 -26t19 -19t26 -7h8q4 0 7.5 1t6.5 1.5t5 1.5l4 2q2 1 3 2t2 1.5t1 1.5h1q74 47 117.5 124t43.5 168q0 45 -11.5 88t-33 80t-51 68.5t-65.5 54.5z" />
    <glyph glyph-name="uniE636" unicode="&#xe636;" 
d="M102 277.5q0 25.5 12.5 47t34.5 34t47 12.5q39 0 66.5 -27.5t27.5 -66.5t-27.5 -66.5t-66.5 -27.5q-25 0 -47 13t-34.5 34.5t-12.5 47z" />
    <glyph glyph-name="uniE637" unicode="&#xe637;" 
d="M476 240q7 -10 7 -23q0 -17 -12 -29l-190 -190q-11 -12 -28 -12t-29 12l-108 108q-12 12 -12 29t12 28l190 190q12 12 29 12q2 0 5 -0.5t6.5 -1.5t7.5 -3l58 58q-36 29 -83 27t-80 -35l-190 -190q-35 -35 -35 -85t35 -86l108 -108q36 -35 86 -35t85 35l190 190
q34 34 35.5 82.5t-30.5 83.5zM955 729l-108 108q-18 17 -40.5 26t-45.5 9t-45.5 -9t-39.5 -26l-190 -190q-33 -33 -35 -80t27 -83l58 58q-5 9 -5 19q0 17 12 29l190 190q5 5 10.5 7.5t9.5 3t8 0.5q17 0 29 -11l108 -108q12 -12 12 -29t-12 -28l-190 -190q-12 -12 -29 -12h-5
q-2 0 -5 1t-6.5 2.5t-6.5 3.5l-57 -57q17 -16 39 -23.5t44.5 -7t44 9.5t38.5 26l190 190q23 23 31 54t0 62.5t-31 54.5zM321 643q9 -9 12.5 -21.5t0 -25t-12.5 -21.5q-7 -7 -16 -10.5t-18.5 -3.5t-18.5 3.5t-15 10.5l-96 96q-9 9 -12.5 21.5t0 25t12.5 21.5q14 14 34 14
t34 -14zM410 712q0 -20 -14 -34t-34 -14t-34 14.5t-14 33.5v136q0 13 6 24t17.5 17.5t24.5 6.5q5 0 10.5 -1.5t10.5 -3.5t9 -5.5t7.5 -7.5t6 -9t3.5 -10.5t1 -10.5v-136zM184 582q20 0 34 -14t14 -34q0 -10 -4 -19t-10.5 -15t-15.5 -10t-18 -4h-136q-20 0 -34 14t-14 34
t14 34t34 14h136zM698 130q-9 9 -12.5 21.5t-0.5 25t13 21.5q14 14 34 14t34 -14l96 -96q14 -14 14 -34t-14 -34t-34 -14t-35 14zM609 61q0 10 3.5 18.5t10 15t15.5 10.5t19 4q13 0 24 -6.5t17.5 -17.5t6.5 -24v-135q0 -7 -1.5 -13.5t-5 -11.5t-7.5 -9.5t-9.5 -7.5t-12 -5
t-12.5 -2q-20 0 -34 14.5t-14 34.5v135zM835 191q-10 0 -19 3.5t-15.5 10t-10 15.5t-3.5 19q0 6 1 11.5t3.5 10t6 8.5t7.5 7.5t9 6t10.5 3.5t10.5 1h135q6 0 11.5 -1t10 -3.5t9 -6t7.5 -7.5t5.5 -8.5t4 -10t1.5 -11.5q0 -13 -6.5 -24t-18 -17.5t-24.5 -6.5h-135z" />
    <glyph glyph-name="uniE638" unicode="&#xe638;" horiz-adv-x="1025" 
d="M352 160l385 384q9 9 12 21.5t0 25t-12 21.5q-14 14 -34 14t-34 -14l-385 -384q-14 -14 -14 -34t14 -34t34 -14t34 14zM479 226q7 -11 8 -25q0 -17 -13 -30l-201 -201q-7 -8 -15 -10.5t-15 -2.5t-15 2.5t-16 10.5l-114 114q-13 13 -13 30q0 3 0.5 6.5t2 7.5t4 8.5
t6.5 8.5l201 201q7 7 15.5 10t15.5 3q4 0 9 -1.5t11 -3.5l61 61q-19 15 -41.5 22.5t-45.5 6.5t-45.5 -10.5t-39.5 -26.5l-202 -202q-37 -37 -37 -90.5t37 -90.5l115 -115q37 -37 90.5 -37t90.5 37l202 202q36 36 37 87t-33 89zM987 744l-115 115q-37 37 -90.5 37t-90.5 -37
l-202 -202q-34 -35 -36.5 -84.5t28.5 -87.5l62 61q-6 10 -6 20q0 18 13 31l201 201q13 13 30.5 13t30.5 -13l114 -114q13 -13 13 -30.5t-13 -30.5l-201 -201q-12 -13 -30 -13q-6 0 -12.5 2t-12.5 6l-61 -60q38 -34 89 -33t87 37l202 202q37 37 37 90.5t-37 90.5z" />
    <glyph glyph-name="uniE639" unicode="&#xe639;" 
d="M320 278q-11 0 -21.5 -2.5t-20.5 -7.5t-18 -13l-193 -194q-23 -23 -23 -55.5t23 -55.5l44 -44q23 -23 56 -23t56 23l193 193q12 12 18 27.5t5 32.5zM392 123l-193 -194q-13 -13 -32 -13q-9 0 -17.5 3.5t-14.5 9.5l-44 44q-14 13 -14 32t14 33l193 193q10 10 23 12l98 -97
q-3 -14 -13 -23zM970 885l-119 -40l-45 -93l-205 -205l91 -90l192 229l94 31l42 118zM952 744l-88 -29l-175 -209l-41 41l185 185l42 86l86 29l20 -20zM955 69l-464 453q18 47 17.5 94.5t-19.5 93t-54 80.5q-7 7 -15 13.5t-15.5 12t-16 11t-17.5 9.5l-18 8q-9 4 -18 7
t-18.5 5.5t-19.5 4t-20 2t-20 0.5q-43 0 -83 -14l-11 -4l124 -123l-21 -100l-121 -41l-123 123l-4 -11q-24 -69 -8 -139t68 -121q73 -74 177 -74q26 0 50.5 5t47.5 15l462 -450q24 -24 59 -24q36 0 61 25l21 21q24 24 24 59t-25 59zM932 -26l-21 -21q-15 -15 -37 -15
q-21 0 -36 15l-477 465l-21 -8q-13 -6 -27 -9.5t-28.5 -5.5t-29.5 -2q-90 0 -154 63q-36 37 -52 85t-10 98l97 -96l159 53l28 137l-95 95q14 2 29 2q90 0 154 -64q30 -30 46.5 -69.5t17 -80.5t-14.5 -82l-8 -21l479 -468q15 -14 16 -35q-1 -21 -15 -36z" />
    <glyph glyph-name="uniE63A" unicode="&#xe63a;" 
d="M260 255l-193 -194q-23 -23 -23 -55.5t23 -55.5l44 -44q23 -23 56 -23t56 23l193 193q25 25 23 60l-119 119h-10l-8 -2q-5 0 -9.5 -1.5t-8.5 -3.5t-8 -4.5t-8 -5.5zM884 686l94 31l42 118l-50 51l-119 -41l-45 -93l-205 -205l91 -90zM491 522q27 69 11.5 142t-67.5 126
q-24 23 -52.5 39.5t-60 25t-65.5 8.5q-43 0 -83 -14l-11 -4l124 -123l-21 -100l-121 -41l-123 123l-4 -11q-24 -69 -8 -139t68 -121q73 -74 177 -74q17 0 33.5 2.5t33 7t31.5 10.5l462 -450q8 -8 17.5 -13.5t20 -8t21.5 -2.5q17 0 33 6.5t28 18.5l20 21q25 24 25 59t-25 59z
" />
    <glyph glyph-name="uniE63B" unicode="&#xe63b;" 
d="M772 313q1 -5 1 -11t-1.5 -12.5t-3.5 -13.5t-4.5 -13.5t-6 -13t-7.5 -11.5q-8 -11 -17.5 -16t-16.5 -5q-3 0 -7 1l-8 2q-8 3 -20 5t-24 0q-4 0 -8 -0.5t-8.5 -1.5t-8.5 -2.5t-7.5 -3.5t-7 -4.5t-5.5 -5.5q-19 -20 -22.5 -45t7.5 -48q7 -16 -3 -32q-2 -3 -6 -6t-9 -6.5
t-10.5 -6.5t-11.5 -6q-12 -5 -26 -9q-7 -1 -12.5 -2t-11.5 -1q-7 0 -13 6q-3 3 -5 6l-4 6q-9 24 -30 42t-48 18t-49 -18t-30 -41q-5 -10 -12 -14q-8 -5 -17 -5q-6 0 -12 1t-13 3q-14 4 -28 10t-25 14q-5 4 -9 8t-7 8q-4 5 -4.5 12.5t5.5 21.5q9 18 7 41q-1 12 -6 22.5
t-14 20.5q-11 12 -27 15q-15 4 -30 3q-16 -1 -34 -6q-11 -3 -22 1q-8 3 -16 15q-7 11 -13 25l-9 29q-1 4 -1.5 8.5t-0.5 8.5v7q1 8 5 13.5t11 8.5q23 9 42 31q7 7 11 15t6 16t2 17q0 28 -19 48q-4 5 -9 9.5t-10.5 8.5t-11 7t-11.5 5q-4 1 -7 4t-5 8q-5 9 -5 18q0 3 0.5 5.5
t0.5 5.5l2 6v6l2 6l2 6q1 3 2.5 6t2.5 6q5 12 12 22q3 5 6.5 8.5t7.5 6.5q6 4 12 3q2 0 3 -1h4q1 -1 3 -1.5t3 -0.5q24 -10 49.5 -6.5t45.5 22.5q9 10 14 23q1 3 1.5 5t1 4.5t1 4.5t1 4.5t0.5 4.5v5q2 13 0 24q0 4 -0.5 7t-0.5 5t-1 4q-1 5 -2 11q-1 3 -0.5 6t1.5 5
q2 5 6.5 10t10.5 9t12.5 7.5t13.5 6.5q5 2 9.5 3.5t9 2.5t9.5 2q13 3 21 3q10 0 16 -7q3 -3 5 -6.5t3 -6.5q5 -11 12 -20.5t17 -17.5q19 -16 46 -16q28 0 49 15q11 8 18.5 18t11.5 21q3 7 10 13.5t14 6.5q11 0 24 -3q6 -2 12.5 -4t12.5 -5q13 -5 24 -14q10 -9 17 -19
q2 -3 2.5 -6.5t-0.5 -7.5q-2 -7 -3 -10q-10 -23 -6.5 -48t22.5 -44t46.5 -21t51.5 9q6 4 15 3q2 0 4 -0.5t3.5 -1t3 -1.5t2.5 -2t3 -2q12 -11 21 -33.5t12 -45.5q1 -13 -4 -21q-6 -8 -13 -10q-8 -3 -15.5 -7t-14 -10t-12 -13t-9.5 -15t-6 -16.5t-2 -17.5q0 -5 0.5 -9
t1.5 -8.5t2 -8t2.5 -7.5t3.5 -7.5t5 -6.5q14 -20 38 -29q3 -2 5 -3.5t4 -2.5q5 -4 8 -8.5t4 -9.5v0zM406 242q35 0 66.5 13t55 37t36.5 55q7 15 10.5 32t3.5 34q0 6 -0.5 12t-1.5 11l-2 12q-1 5 -2.5 10.5t-3.5 11t-4 10.5q-6 16 -15.5 29.5t-21 25t-25 20.5t-29.5 16
q-11 5 -22 7.5t-22 4t-23 1.5q-36 0 -67 -13t-54 -36.5t-37 -54.5q-6 -16 -9.5 -32.5t-3.5 -34.5q0 -35 13 -66q14 -31 37 -55q23 -23 54 -37q11 -4 21.5 -7t22 -4.5t23.5 -1.5v0zM1006 -50v-6q0 -2 -1 -6q-1 -7 -4 -14t-7 -12q-2 -3 -4 -5l-4 -4q-5 -2 -9 -2h-3
q-1 0 -2.5 0.5t-2.5 1.5l-10 2h-4h-4h-4q-7 0 -13 -2t-11 -7q-9 -10 -11 -23t4 -25q4 -8 -2 -16q-2 -3 -7 -7q-3 -1 -6 -3t-6 -3t-6 -2.5t-7 -2.5q-2 0 -3.5 -0.5t-2.5 -0.5h-4h-2q-2 0 -3.5 0.5t-3.5 2.5q-3 2 -4 6h-1q-1 4 -3.5 8t-5 7t-6.5 6q-11 9 -25 9t-25 -9t-15 -21
q-2 -5 -6 -7l-9 -2q-6 0 -13 2t-14 5q-4 1 -7 3l-6 4q-3 2 -5 4t-3 4t-1.5 3.5t-1 3.5t0.5 4.5t3 5.5q4 10 3 22q0 6 -3 11.5t-7 10.5q-3 3 -6.5 5t-7.5 3t-8 1h-7q-5 0 -9 -1t-9 -2q-6 -1 -11 1q-5 1 -8 7l-4 6q-2 3 -3 7q-3 7 -5 14.5t-1 12.5q1 9 8 11q6 3 11.5 7t10.5 9
q10 11 10 25q0 7 -2.5 13t-7.5 12q-9 10 -22 15l-2 2l-4 4l-2 9q0 6 2 12l4 13q2 6 6 11l7 7q2 1 3.5 1.5t3.5 0.5l6 -2q12 -5 25.5 -3t23.5 12q2 2 4 5t3 7q2 7 3 14v12q-1 3 -1 5v3l-2 6v3q0 1 1 3q2 5 9 9q3 3 6 4l7 4q7 2 14 3.5t11 1.5q5 0 8 -3.5t5 -6.5
q4 -11 14 -19.5t24 -8.5q5 0 9 1t8 2.5t8 4.5q6 4 9.5 9t5.5 11l6 7q3 3 7 3q2 0 5.5 -0.5t6.5 -1t6.5 -1.5t6.5 -3q7 -3 12 -7.5t9 -9.5q1 -2 1 -4v-3q-1 -4 -2 -5q-2 -6 -3 -12.5t0 -12.5q2 -13 12 -23q2 -2 5 -4t6 -3.5t6 -2t7 -0.5q7 -1 13.5 0t12.5 4q2 1 3.5 1.5
t4.5 0.5q4 -1 8 -4q6 -5 10 -17q2 -4 3 -8t2 -7.5t2 -7.5q0 -7 -3 -11t-6 -5q-6 -2 -11.5 -6t-10 -9.5t-6.5 -12t-2 -13.5q0 -14 7 -24l6 -6q3 -3 6.5 -5t7.5 -4q1 0 2.5 -1t2.5 -2q4 -4 6 -9v0zM818 -86q9 0 17.5 1.5t16.5 5t15 8t13 10.5q12 13 19 28.5t7 34.5
q0 6 -1 11.5t-2.5 11t-3.5 11.5q-3 8 -8 15t-11 13q-12 12 -28 18q-4 2 -8 3.5t-8 2.5h-10q-4 1 -8 1q-18 0 -34 -7q-3 -1 -5 -2l-4 -2q-2 -1 -4 -2.5t-4 -2.5t-4 -2.5t-3.5 -3.5t-3.5 -3q-12 -12 -19 -28t-7 -34.5t7 -34.5q3 -7 8 -14.5t11 -13.5t13 -10.5t15 -8.5
q4 -1 8 -2.5t8 -2.5t8 -1h10v0z" />
    <glyph glyph-name="uniE63C" unicode="&#xe63c;" 
d="M512 851q-80 0 -155 -22.5t-135.5 -63t-106 -94t-70.5 -120.5t-25 -139q0 -163 120 -286q5 -6 7 -21.5t0.5 -35t-9 -41t-19.5 -37.5q-5 -7 -11 -13t-13 -11t-11 -8t-11 -7q-8 -5 -11 -7.5t-5 -6t0 -6t8 -5.5q14 -8 38.5 -9.5t57 5t62.5 22.5q47 25 91 38t62 8
q66 -17 136 -17q100 0 191 35t157 93.5t105 139.5t39 170.5t-39 170.5t-105 139.5t-157 93.5t-191 35zM271 333q-36 0 -61 25t-25 60t25 60t61 25q23 0 42.5 -11t31 -31t11.5 -43t-11.5 -42.5t-31 -31t-42.5 -11.5zM515.5 333q-35.5 0 -60.5 25t-25 60t25 60t60 25
q23 0 43 -11t31.5 -31t11.5 -43q0 -35 -25 -60t-60.5 -25zM759.5 333q-35.5 0 -60.5 25t-25 60t25 60t61 25q17 0 33 -6.5t27.5 -18t18 -27.5t6.5 -33q0 -35 -25 -60t-60.5 -25z" />
    <glyph glyph-name="uniE63D" unicode="&#xe63d;" 
d="M843 714h-662q-31 0 -57.5 -15.5t-42 -41.5t-15.5 -57v-441q0 -48 33.5 -81.5t81.5 -33.5l336 1l175 -175q8 -8 19 -8t19 8q5 5 7 12t0 13.5t-7 12.5l-180 179q-6 6 -15 8h-4l-336 -1q-35 0 -56.5 19.5t-21.5 59.5v413q0 41 23 59.5t67 18.5h622q10 0 19 -1t16.5 -3
t13.5 -5.5t11 -8.5t8 -11t5.5 -13.5t3.5 -16.5t1 -19v-413q0 -18 -3 -30.5t-9.5 -22t-17 -15t-25.5 -8.5t-35 -3h-24q-10 0 -17.5 -7.5t-7.5 -17.5t7.5 -17t17.5 -8h50q48 0 81.5 33.5t33.5 81.5v441q0 31 -15.5 57t-42 41.5t-57.5 15.5zM586 378q42 37 54 61q5 12 8 24
t3 25q0 50 -39 83.5t-99 33.5q-59 0 -96 -32.5t-44 -92.5h1v-1q-1 -1 -1 -2q0 -11 8 -19t19 -8t18.5 7t8.5 18q15 86 86 86q35 0 59.5 -23t24.5 -54q0 -15 -7 -29.5t-36 -40.5q-8 -6 -14.5 -12t-11.5 -11t-9 -10q-13 -13 -21 -28l-4 -10q-2 -5 -3.5 -10t-2.5 -11v-2
q-3 -15 -3 -36h1v-1q0 -10 7 -17.5t17.5 -7.5t18 7.5t7.5 17.5v1v1q0 19 2.5 28.5t6.5 18.5q9 17 41 46zM482 196q0 -12 9 -21t21 -9t21 9t9 21q0 8 -4 15t-11 11t-15 4t-15 -4t-11 -11t-4 -15z" />
    <glyph glyph-name="uniE63E" unicode="&#xe63e;" 
d="M965 398q-4 13 -14.5 24.5t-29.5 18.5q-75 29 -215 80q-15 20 -35 46.5t-52.5 69t-52.5 69.5q-22 26 -54 26q-15 0 -28.5 -6.5t-22.5 -18.5q-50 -62 -144 -186q-135 -49 -214 -79q-8 -3 -15 -7.5t-12.5 -10t-9.5 -12t-7 -14.5q-10 -31 10 -62q44 -68 128 -191v-23
q0 -12 1 -34v-42q1 -22 1.5 -45.5t1.5 -46.5t2 -41q0 -20 6.5 -34.5t18.5 -23.5q4 -2 7.5 -4t8 -3.5t10 -2.5t11.5 -1q13 0 27 4q77 21 219 64q144 -45 219 -66q6 -1 11.5 0.5t10 5.5t6.5 10q1 7 0 12.5t-5.5 10t-10.5 6.5q-46 13 -224 68q-7 2 -14 0q-109 -34 -224 -67
q-18 -5 -25 0q-6 5 -7 23q-4 98 -6 238q0 3 -1 6.5t-3 6.5q-73 106 -131 195q-8 12 -4 23q3 10 16 15q75 29 219 80l1 1q6 2 11 8q76 101 146 191q4 4 8 5.5t8 1.5q11 0 18 -9q52 -67 143 -189q1 -2 2.5 -3t2.5 -2t2.5 -2t3.5 -1l8 -3q9 -3 22.5 -8t31.5 -12t39 -14.5
t41.5 -15t41 -15.5t36.5 -14q6 -2 11 -5.5t7 -8.5q1 -3 0 -7.5t-4 -8.5q-132 -203 -133 -203q-4 -5 -4 -12l-4 -147q0 -6 3 -11.5t8 -9t11 -3.5q10 0 17 6.5t7 16.5l3 140q92 138 130 197q18 28 9 56z" />
    <glyph glyph-name="uniE63F" unicode="&#xe63f;" 
d="M470 479h84v86h-84v-86zM554 139v256h-84v-256h84zM512 693q272 0 512 -182l-512 -628l-512 630q236 180 512 180z" />
    <glyph glyph-name="uniE640" unicode="&#xe640;" 
d="M939 90l-141 -140q-4 -3 -9 -3h-3q-1 0 -2.5 1t-2.5 2l-81 81q-2 2 -3.5 4.5t-2.5 6t1.5 7t6.5 7.5q16 11 29 -3l58 -57l116 116q2 3 6 4.5t10 0.5t11 -5q5 -3 7.5 -7.5t2 -8.5t-2.5 -6zM415 178l-32 -155l32 -35l31 35zM821 233q-40 0 -76 -15.5t-62.5 -43t-41.5 -63.5
l-35 14q-23 13 -46 31q-11 9 -19 17t-12 13.5t-6.5 10t-3 7t-0.5 3.5v31q42 48 57 104q22 15 33 44q20 55 -7 96q2 16 2.5 29t-0.5 35t-5.5 40.5t-15 40.5t-25.5 38q-58 64 -146 66h-1q-43 -1 -80.5 -18t-66.5 -48q-57 -62 -44 -183q-9 -14 -12.5 -32.5t-1.5 -34t8 -29.5
q3 -10 8 -18t11 -14.5t13 -11.5q16 -56 56 -104v-5v-5v-5v-14q0 -32 -31.5 -52t-101.5 -44q-77 -27 -107 -46q-56 -36 -56 -91v-56l663 -1q27 -34 66.5 -54t85.5 -20q80 0 136.5 57t56.5 137t-56.5 137t-136.5 57zM46 -40v16q0 33 32 53.5t104 45.5q76 26 105 45
q55 35 55 89v14v23v8l-5 5q-42 46 -55 101l-2 10l-9 4q-13 6 -20 26q-6 13 -5.5 33t10.5 31l5 7l-1 9v1q-12 108 34 157q46 51 117 53q71 -2 118 -53q20 -22 28.5 -57t8 -55t-3.5 -45l-2 -9l6 -8q10 -11 11 -31t-6 -33q-3 -10 -8.5 -16.5t-11.5 -9.5l-9 -4l-2 -10
q-6 -23 -17.5 -45.5t-20 -34t-17.5 -21.5l-5 -5v-10q-1 -25 -1 -37q0 -37 56 -82q6 -5 19.5 -13.5t23.5 -14.5l11 -6l42 -16q-4 -18 -4 -36q0 -42 17 -79h-598zM820.5 -115q-63.5 0 -108.5 45t-45 109t45 109t109 45q41 0 76.5 -20.5t56 -56t20.5 -77.5q0 -64 -45 -109
t-108.5 -45z" />
    <glyph glyph-name="uniE641" unicode="&#xe641;" 
d="M843 702h-662q-48 0 -81.5 -33.5t-33.5 -80.5v-441q0 -48 33.5 -81.5t81.5 -33.5l336 1l175 -175q8 -8 19 -8t19 8t8 19t-8 19l-180 179q-6 6 -15 8h-4l-336 -1q-35 0 -56.5 19.5t-21.5 59.5v413q0 41 23 59.5t67 18.5h622q8 0 15.5 -0.5t14 -2t12 -3.5t10 -5t8.5 -7
t7 -8.5t5 -10t3.5 -12t2 -14t0.5 -15.5v-413q0 -43 -20 -61t-70 -18h-24q-10 0 -17.5 -7.5t-7.5 -17.5t7.5 -17t17.5 -8h50q31 0 57.5 15.5t42 42t15.5 57.5v441q0 47 -33.5 80.5t-81.5 33.5zM224 377.5q0 -17.5 9 -32.5t23.5 -23.5t32 -8.5t32.5 8.5t23.5 23.5t8.5 32.5
t-8.5 32.5t-23.5 23.5t-32.5 8.5t-32 -8.5t-23.5 -23.5t-9 -32.5zM671 377q0 -26 19 -45t45 -19q18 0 32.5 8.5t23.5 23.5t9 32q0 27 -19 46t-46 19q-17 0 -32 -8.5t-23.5 -23.5t-8.5 -33zM448 377q0 -26 18.5 -45t45.5 -19t45.5 19t18.5 45.5t-18.5 45.5t-45.5 19
q-17 0 -32 -8.5t-23.5 -23.5t-8.5 -33z" />
    <glyph glyph-name="uniE642" unicode="&#xe642;" 
d="M660 -72q7 0 -3 -15.5t-30 -34t-47 -34t-58 -15.5q-27 0 -53 15.5t-45.5 34t-29.5 34t-6 15.5h272zM914 15q8 -10 7.5 -18.5t-5 -14.5t-10.5 -9.5t-12 -3.5h-748q-14 0 -20.5 11.5t4.5 28.5q17 31 41 69t45 81.5t36 92t15 102.5q0 51 14.5 92t37.5 71.5t53 52t63 32.5
q-16 27 -16 56q0 42 28.5 70.5t70.5 28.5t70.5 -28.5t28.5 -70.5q0 -15 -4 -28.5t-11 -25.5q35 -11 66 -32.5t54 -53t37 -72.5t14 -91q0 -52 15.5 -101.5t37 -94t45.5 -81.5t43 -63zM478 658q0 -17 11.5 -28.5t27.5 -11.5h2q17 1 28 12t11 28t-11 28.5t-28.5 11.5t-29 -11.5
t-11.5 -28.5z" />
    <glyph glyph-name="uniE643" unicode="&#xe643;" 
d="M1001 -126v-75h-276v75h75v75h74v-75h52v150h75v-150zM926 150h75v-75h-75v75zM926 323h75v-75h-75v75zM627 800h397v-397h-397v397zM673 449h300v300h-300v-300zM748 674h150v-150h-150v150zM472 449h75v-74h-75v74zM472 576h75v-75h-75v75zM472 777h75v-150h-75v150z
M173 328h248v-75h-248v75zM0 800h397v-397h-397v397zM51 449h300v300h-300v-300zM126 674h150v-150h-150v150zM98 328v-75h-75v75h75zM397 -224h-397v397h397v-397zM351 127h-300v-300h300v300zM276 -102h-150v154h150v-154zM552 99h75v-75h-75v-150h75v-75h-150v398h75v-98
zM622 -46h79v-75h-74v75h-5zM701 351v-75h-74v-75h-75v75h75v75h74zM800 300h74v-75h-74v75zM725 -46v74h75v-74h-75zM650 150h75v75h75v-75h74v-75h-224v75z" />
    <glyph glyph-name="uniE644" unicode="&#xe644;" 
d="M542 800q29 0 58.5 -6.5t55 -18t45 -25.5t31.5 -29q26 -32 38.5 -71.5t17.5 -75.5q5 -41 5 -83q7 -5 11 -13q4 -7 6.5 -18.5t0.5 -27.5q-2 -21 -8.5 -34t-14.5 -20q-9 -8 -19 -11l-11 -33q-5 -13 -11.5 -26t-14.5 -20q-20 -15 -32 -26t-16 -36q-3 -16 -2 -31.5t8.5 -31.5
t23.5 -30.5t44 -25.5q26 -10 56 -18t58.5 -19t50.5 -27t32 -43q5 -17 7.5 -41t2.5 -48.5t-3.5 -46t-11.5 -32.5q-5 -7 -29 -14t-59 -14t-78.5 -12t-87.5 -8.5t-84.5 -5.5t-70 -2t-69 2t-81 5.5t-83 8t-75.5 10t-57.5 10.5t-29.5 10q-10 8 -15.5 50t4.5 108q5 38 30 58
t58.5 32t69 21t63.5 26q21 14 32.5 26t16.5 24.5t5 25.5t-1 30q-2 23 -16.5 37t-31.5 28q-8 7 -14.5 20t-11.5 26q-5 15 -10 33q-7 2 -14 7q-6 5 -13.5 14t-12.5 27q-6 17 -4.5 31.5t5.5 24.5q4 11 13 21q-1 39 5 78q4 33 14.5 70.5t32.5 67.5q19 29 43 46.5t49 28t50 14
t49 3.5z" />
    <glyph glyph-name="uniE645" unicode="&#xe645;" 
d="M797 286q46 0 86.5 -17.5t71 -48t48.5 -71t18 -86.5t-18 -86.5t-48.5 -71t-71 -48.5t-86.5 -18q-47 0 -87.5 18t-71 48.5t-48 71t-17.5 86.5t17 86.5t48 71t71.5 48t87.5 17.5zM908 28q15 0 25.5 9.5t10.5 24.5t-10.5 26t-25.5 11h-220q-15 0 -26 -11t-11 -26t11 -24.5
t26 -9.5h220zM501 -30q4 -20 13 -42.5t27 -45.5t45 -45t68 -42q-27 -6 -64 -10q-31 -4 -76 -6.5t-103 -2.5q-29 0 -68 2t-80.5 5.5t-82.5 8.5t-74.5 10.5t-57 10.5t-29.5 10q-10 8 -15.5 49.5t4.5 108.5q6 37 30.5 57t57.5 31.5t68 21t63 26.5q21 13 33 26t16.5 25t4.5 25.5
t-1 29.5q-2 23 -16.5 37t-30.5 28q-8 7 -14.5 20t-12.5 26q-5 15 -10 32q-7 2 -14 8q-6 5 -12.5 14t-11.5 26q-7 18 -5 32t6 25t13 22q0 38 4 77q4 33 14 70.5t32 66.5q19 29 43 47.5t48.5 28.5t49.5 13.5t48 3.5q30 0 57.5 -7t50.5 -18.5t41.5 -25.5t29.5 -28
q27 -33 39 -72t17 -75q5 -41 5 -82q7 -6 11 -14q5 -7 7.5 -18t0.5 -28q-2 -22 -9 -34.5t-15 -19.5q-9 -9 -19 -12q-5 -17 -10 -32q-5 -13 -12 -26t-15 -20q-9 -8 -14 -16t-8 -16.5t-6.5 -18t-10.5 -19.5q-48 -74 -56 -133t6 -115z" />
    <glyph glyph-name="uniE646" unicode="&#xe646;" 
d="M464 152q-2 -11 -5 -17t-15 -13q-26 -16 -56.5 -26.5t-58.5 -22.5t-48.5 -32t-25.5 -56q-2 -11 -2.5 -22t-1.5 -20q-1 -2 -2 -3.5t-2 -3.5q-40 3 -80.5 7t-74.5 9t-57.5 10.5t-29.5 10.5q-9 7 -13.5 42.5t3.5 92.5q5 31 26 47.5t49.5 26.5t58 18t53.5 22q18 12 27.5 22.5
t13.5 21t4 21.5t-1 24q-2 21 -13.5 32.5t-25.5 23.5q-8 5 -13.5 16t-9.5 23l-9 27q-6 2 -12 6q-5 4 -10.5 12t-10.5 22.5t-4 27t5 21.5q4 11 11 18q-1 33 3 66q4 28 13.5 59.5t27.5 56.5q16 24 36.5 39.5t41 24t42 11.5t41.5 3q51 0 91.5 -21.5t60.5 -45.5q13 -17 16.5 -32
t9.5 -34q-19 -11 -40.5 -33t-38.5 -44q-20 -28 -30 -62.5t-15 -64.5q-5 -35 -5 -71q-8 -9 -13 -20q-4 -10 -5 -23.5t4 -30.5q6 -17 12 -26t11 -14q6 -6 12 -8q4 -16 8 -31q4 -12 9.5 -24.5t13.5 -18.5q7 -6 11.5 -10t7 -8t3 -10t2.5 -16zM1004 -34q4 -15 6.5 -35t2.5 -41
t-3 -39t-9 -27q-4 -6 -24 -12.5t-49 -11.5t-64.5 -9.5t-71.5 -7.5t-69.5 -5t-59 -2t-58.5 2t-68.5 5t-70 6.5t-63.5 8t-48.5 9t-24.5 9.5q-8 7 -13 42.5t3 90.5q5 33 25.5 49t49 26.5t58.5 18t53 22.5q18 12 28 22t14.5 20.5t4.5 21.5t-1 25q-2 20 -14 32t-27 23
q-7 6 -12.5 17t-9.5 22q-4 13 -8 28q-6 2 -12 6q-5 4 -10.5 12t-11 22.5t-4.5 27t5 20.5q5 10 12 18q-1 33 3 66q4 29 12.5 59.5t26.5 57.5q16 24 36.5 39.5t42 24t42.5 11.5t40 3q52 0 92.5 -21.5t59.5 -45.5q23 -27 33.5 -61t15.5 -64q5 -34 4 -69q5 -4 9 -11
q3 -6 5.5 -15.5t0.5 -23.5q-2 -19 -8 -30t-12 -17q-7 -7 -16 -9q-4 -15 -8 -28q-4 -11 -10 -22t-14 -16q-8 -7 -14.5 -12t-11.5 -10.5t-8.5 -13t-5.5 -17.5q-2 -13 -1.5 -26.5t6.5 -27t19.5 -25.5t38.5 -21q21 -9 47 -15.5t49.5 -16t42.5 -23.5t27 -36z" />
    <glyph glyph-name="uniE647" unicode="&#xe647;" horiz-adv-x="1033" 
d="M491 -27q4 -19 13.5 -41.5t26.5 -45.5t45 -45.5t68 -41.5q-27 -7 -63 -11q-30 -4 -74.5 -7t-102.5 -3q-30 0 -68.5 2t-79.5 6t-81.5 9t-74 10t-56.5 10.5t-29 11.5q-10 8 -16 49.5t5 107.5q6 37 30.5 56.5t56.5 31.5t67 21.5t63 26.5q21 14 32.5 26t16 24.5t4.5 25.5
t-1 29q-2 24 -16 37.5t-31 27.5q-8 7 -14 19.5t-11 26.5q-6 15 -11 31q-7 2 -14 8q-6 5 -12.5 14t-12 26.5t-3.5 31t6 24.5q4 13 12 23q0 39 4 77q4 33 14 70.5t32 66.5q19 28 42.5 45.5t48 28t49.5 14.5t48 4q29 0 56 -7t50 -18.5t41.5 -25.5t29.5 -29q26 -32 38.5 -71.5
t17.5 -74.5q5 -40 4 -81q7 -5 12 -13q4 -8 6.5 -19t0.5 -27q-2 -23 -9 -35.5t-15 -19.5q-9 -9 -19 -12q-5 -16 -10 -31q-5 -14 -11.5 -26.5t-14.5 -19.5q-9 -8 -14 -16t-8 -16t-6.5 -17.5t-11.5 -21.5q-23 -36 -36.5 -69t-18.5 -63t-3 -58t8 -56zM1014 -163q14 -18 15.5 -30
t-9.5 -23q-6 -7 -16 -7.5t-20.5 3.5t-20 10t-17.5 12l-71 65q-29 -17 -61 -24.5t-64 -5.5t-62.5 15.5t-55.5 39.5q-28 28 -42.5 64.5t-14.5 74t14.5 74t42.5 64.5q28 29 63.5 43.5t72.5 14.5t72.5 -14.5t64.5 -43.5q24 -25 38 -56.5t16.5 -64.5t-5.5 -65.5t-25 -60.5l39 -38
q15 -16 28 -30zM769.5 -100q26.5 0 50 10t41 28t27.5 42t10 51.5t-10 51t-27.5 41.5t-41 28t-50 10t-50 -10t-40.5 -28t-27.5 -41.5t-10.5 -51t10.5 -51.5t27.5 -42t40.5 -28t50 -10z" />
    <glyph glyph-name="uniE648" unicode="&#xe648;" 
d="M512 431q11 0 22 3.5t19.5 10t15 15.5t10 19.5t3.5 21.5q0 19 -9.5 35.5t-25.5 26t-35 9.5q-29 0 -49.5 -21t-20.5 -50q0 -19 9.5 -35t25.5 -25.5t35 -9.5zM512 358q-19 0 -35 -9.5t-25.5 -25.5t-9.5 -35t9.5 -35t25.5 -25.5t35 -9.5q11 0 22 3.5t19.5 10t15 15t10 19.5
t3.5 22q0 29 -20.5 49.5t-49.5 20.5zM512 145q-19 0 -35 -9.5t-25.5 -25.5t-9.5 -35q0 -29 20.5 -50t49.5 -21t49.5 21t20.5 50q0 19 -9.5 35t-25.5 25.5t-35 9.5z" />
    <glyph glyph-name="uniE649" unicode="&#xe649;" 
d="M779.5 -166q-45.5 0 -86.5 17.5t-71.5 48t-48 71.5t-17.5 86.5t17.5 86.5t48 71t71.5 47.5t86.5 17.5t86.5 -17.5t71 -47.5t47.5 -71t17.5 -86.5t-17.5 -86.5t-47.5 -71.5t-71 -48t-86.5 -17.5zM890 94h-81v75q0 15 -10 26t-25 11t-24 -11t-9 -26v-75h-71q-15 0 -26 -11
t-11 -26.5t11 -23t26 -7.5h71v-78q0 -15 9 -26t24 -11t25 11t10 26v78h81v-2q15 0 26 8.5t11 24t-11 26.5t-26 11zM620 366q-4 -18 -9 -32q-4 -12 -10.5 -24.5t-14.5 -19.5q-10 -7 -13.5 -16t-6.5 -18l-6 -20q-3 -9 -11 -19q-25 -33 -37.5 -63.5t-17.5 -59t-3 -56t9 -54.5
q4 -19 13 -40.5t26 -44t43 -43.5t65 -41q-26 -5 -61 -10q-29 -3 -72.5 -6t-98.5 -3q-29 0 -66.5 2.5t-77.5 5.5t-78.5 7.5t-71 9.5t-54.5 10.5t-28 9.5q-10 9 -15.5 49t3.5 104q5 36 28.5 55t55.5 30t66.5 20.5t60.5 25.5q21 13 31.5 24.5t15 23.5t4.5 25.5t-1 28.5
q-2 23 -15.5 36t-29.5 26q-8 7 -15 20t-11 25q-5 14 -9 32q-7 2 -14 6q-5 4 -11.5 13t-12.5 26q-5 17 -3.5 31t5.5 24q5 12 12 21q0 37 5 74q4 32 13.5 68t29.5 64t42.5 45t46.5 27t48 14t46 4q28 0 54.5 -6.5t48.5 -17.5t39.5 -24.5t28.5 -28.5q25 -31 36.5 -69.5
t17.5 -72.5q5 -39 4 -78q7 -6 11 -13t6.5 -18t0.5 -27q-3 -21 -9.5 -33t-13.5 -19q-9 -7 -19 -10z" />
    <glyph glyph-name="uniE64A" unicode="&#xe64a;" 
d="M512 169q36 0 69 14t57 38t38 57t14 70v238q0 36 -14 69.5t-38 57t-57 38t-69 14.5q-74 0 -126.5 -52.5t-52.5 -126.5v-238q0 -49 24 -90t65 -65t90 -24zM839 332v1q0 9 -3.5 17t-9.5 14t-14 9.5t-17 3.5q-12 0 -22.5 -6t-16.5 -16t-6 -22q0 -99 -70 -169t-168.5 -70
t-168.5 70t-70 169q0 7 -2 14t-6.5 12.5t-9.5 9.5t-12 6t-14 2q-19 0 -32 -13t-13 -31v-1q0 -123 81 -215t202 -109v-107h-149q-7 0 -14 -2.5t-12.5 -6.5t-9.5 -9.5t-6.5 -12.5t-2.5 -14q0 -12 6 -22.5t16.5 -16.5t22.5 -6h387q9 0 17.5 3.5t14.5 9.5t9.5 14.5t3.5 17.5
q0 18 -13 31.5t-32 13.5h-149v107q121 17 202 109t81 215z" />
    <glyph glyph-name="uniE64B" unicode="&#xe64b;" 
d="M881 485q1 7 1 9q40 48 44 51q4 4 9 8l10 8q5 4 10 7.5t10 7.5t9 8q17 15 27 35.5t11.5 42t-4 42.5t-19 39t-33.5 29q-80 47 -173 15q-18 -6 -34 -20t-27 -32.5t-16 -41t-3 -44.5h88q5 19 5 20q13 49 54 51q44 2 58 -32q9 -20 2.5 -39t-27.5 -37q-6 -5 -14 -10.5
t-16.5 -11.5t-14.5 -10q-49 -38 -36 -95h79zM847 434q-25 0 -41 -17.5t-16 -42.5q1 -16 9 -28.5t21.5 -19.5t29 -7t28.5 7.5t20.5 20.5t7.5 29q0 25 -17 42t-42 16zM673 637q27 -25 43 -41q8 -8 14 -15t10 -13t6.5 -10.5t4.5 -8.5q0 -3 0.5 -5.5t0.5 -4.5v-4v-16h-146
q-10 0 -17 8q-3 2 -5 5l-4 6q-2 3 -3.5 6t-3 6.5t-2.5 7t-2 6.5q-1 5 -1.5 9.5t-0.5 6.5v123h3q8 0 16 -2q4 -2 9 -4t10 -6q11 -7 27 -20q17 -13 41 -34v0zM504 579q0 -19 6 -41q2 -7 5 -13.5t6.5 -13t7.5 -12.5q13 -18 33 -30t46 -12h144v-557q0 -29 -11 -52t-30 -38
q-9 -8 -19.5 -14.5t-22.5 -10.5q-22 -9 -44 -9h-486q-10 0 -20 2.5t-21 8.5q-23 11 -42 29q-6 5 -12 11.5t-11 13.5t-9 15q-13 23 -13 47v673q0 20 10 43q9 22 25 41q17 18 37 31q21 12 44 12h377v-124zM567 -37q13 0 23.5 4.5t19.5 13.5t13.5 20t4.5 24q0 26 -18 43.5
t-43 17.5h-371q-26 0 -43.5 -17.5t-17.5 -43.5t17.5 -44t43.5 -18h371zM628 271q0 13 -4.5 24t-13.5 20q-18 18 -43 18h-371q-13 0 -24 -4.5t-19 -13.5q-5 -4 -8.5 -9.5t-5.5 -11t-3 -11t-1 -12.5q0 -25 17.5 -43t43.5 -18h371q13 0 23.5 4.5t19.5 13.5q3 3 5.5 6t4.5 6.5
t3.5 7t2.5 7.5t1.5 8t0.5 8v0zM628 271z" />
    <glyph glyph-name="uniE64C" unicode="&#xe64c;" 
d="M212 -40h348h16q5 0 10 -0.5t8 -2t5.5 -3t8.5 -6.5l195 -133v145h9q72 0 122.5 47.5t50.5 115.5v475q0 68 -50.5 115.5t-122.5 47.5h-600q-72 0 -122.5 -47.5t-50.5 -115.5v-475q0 -68 50.5 -115.5t122.5 -47.5zM730.5 434q19.5 0 36.5 -10t26.5 -26.5t9.5 -36.5
t-9.5 -37t-26.5 -26.5t-36.5 -9.5t-36.5 9.5t-26.5 26.5t-9.5 37t9.5 36.5t26.5 26.5t36.5 10zM512 434q30 0 51.5 -21.5t21.5 -51.5t-21.5 -51.5t-51.5 -21.5t-51.5 21.5t-21.5 51.5t21.5 51.5t51.5 21.5zM294 434q30 0 51.5 -21.5t21.5 -51.5t-21.5 -51.5t-51.5 -21.5
t-51.5 21.5t-21.5 51.5t21.5 51.5t51.5 21.5z" />
    <glyph glyph-name="uniE64D" unicode="&#xe64d;" 
d="M104 352q-11 0 -20 -5.5t-14 -14.5t-5 -19v-50q0 -16 11.5 -27.5t27.5 -11.5h816q16 0 27.5 11.5t11.5 27.5v50q0 16 -11.5 27.5t-27.5 11.5h-816zM577 696q0 11 -5 20t-14 14t-20 5h-49q-17 0 -28 -11.5t-11 -27.5v-816q0 -16 11 -27.5t28 -11.5h49q16 0 27.5 11.5
t11.5 27.5v816z" />
    <glyph glyph-name="uniE64E" unicode="&#xe64e;" 
d="M935 27h-847q-12 0 -21 8.5t-9 20.5v52q0 13 9 21.5t21 8.5h766v377q0 12 8.5 21t20.5 9h52q12 0 21 -9t9 -21v-459q0 -12 -9 -20.5t-21 -8.5zM732 230h-237q-8 0 -15 4t-11 11t-4 15v52q0 6 2.5 11.5t6.5 9.5t9.5 6t11.5 2h237q12 0 20.5 -8.5t8.5 -20.5v-52
q0 -12 -8.5 -21t-20.5 -9zM732 434h-126q-5 0 -9.5 1.5t-8 4t-6.5 6.5t-4.5 8.5t-1.5 8.5v52q0 12 8.5 21t21.5 9h126q12 0 20.5 -9t8.5 -21v-52q0 -12 -8.5 -20.5t-20.5 -8.5zM473 434h-126q-6 0 -11.5 2t-9.5 6t-6.5 9.5t-2.5 11.5v52q0 6 2.5 11.5t6.5 9.5t9.5 6.5
t11.5 2.5h126q12 0 20.5 -9t8.5 -21v-52q0 -12 -8.5 -20.5t-20.5 -8.5zM214 434h-126q-4 0 -8 1t-7 3t-6 4.5t-5 6t-3 7t-1 7.5v52q0 12 9 21t21 9h126q12 0 20.5 -9t8.5 -21v-52q0 -3 -0.5 -6t-1.5 -5.5t-2.5 -5t-3.5 -4.5t-4.5 -3.5t-5 -2.5t-5.5 -1.5t-6 -0.5zM88 341
h237q6 0 11.5 -2t9.5 -6t6 -9.5t2 -11.5v-52q0 -12 -8.5 -21t-20.5 -9h-237q-5 0 -9.5 1.5t-8 4.5t-6.5 6.5t-4.5 8t-1.5 9.5v52q0 12 9 20.5t21 8.5z" />
    <glyph glyph-name="uniE64F" unicode="&#xe64f;" 
d="M255.5 352q-17.5 0 -32 -8.5t-23 -23.5t-8.5 -32t8.5 -32t23 -23.5t32 -8.5t32.5 8.5t23.5 23.5t8.5 32t-8.5 32t-23.5 23.5t-32.5 8.5zM512.5 352q-17.5 0 -32.5 -8.5t-23.5 -23.5t-8.5 -32q0 -26 19 -45t45.5 -19t45.5 19t19 45q0 17 -9 32t-23.5 23.5t-32 8.5z
M769 352q-18 0 -32.5 -8.5t-23 -23.5t-8.5 -32t8.5 -32t23 -23.5t32.5 -8.5q26 0 45 19t19 45.5t-19 45t-45 18.5z" />
    <glyph glyph-name="uniE650" unicode="&#xe650;" 
d="M512 761q-96 0 -184 -37.5t-151 -100.5t-100.5 -151t-37.5 -184t37.5 -184t100.5 -151t151 -100.5t184 -37.5t184 37.5t151 100.5t100.5 151t37.5 184q0 77 -23.5 149.5t-67.5 130.5t-102 102t-130.5 67.5t-149.5 23.5zM755 240h-486v96h486v-96z" />
    <glyph glyph-name="uniE651" unicode="&#xe651;" 
d="M774 794h-485q-2 0 -7 -0.5t-17 -4t-21 -10.5t-16.5 -22t-7.5 -35l-1 -868v-2t1 -7v-10q1 -5 3 -11t5 -12t8 -11.5t12 -9.5t16.5 -6.5t21.5 -2.5h491h3q3 0 10 1.5t13.5 4t14.5 7.5t13.5 12t9 18.5t3.5 25.5v871q1 0 0.5 7.5t-4 18t-10 21t-21.5 18t-35 7.5v0zM462 759
h139v-35h-139v35zM410 759q2 0 4 -0.5t4 -1.5l2 -2q2 -1 3 -2.5t2 -3.5t1.5 -3.5t0.5 -4.5q0 -7 -5 -12t-12.5 -5t-12.5 5t-5 12.5t5 12.5t13 5zM531 -148q-9 0 -17 4.5t-12.5 12.5t-4.5 18q0 14 10 24.5t24.5 10.5t24.5 -10.5t10 -24.5q0 -7 -2.5 -13.5t-7.5 -11
t-11.5 -7.5t-13.5 -3zM776 -8h-490v697h490v-697zM776 -8z" />
    <glyph glyph-name="uniE652" unicode="&#xe652;" 
d="M516 -173q-8 3 -22.5 8.5t-55 24.5t-77.5 40t-82.5 55t-78 69.5t-55 83t-22.5 96.5v405l393 140l393 -140v-405q0 -162 -226 -297q-87 -52 -167 -80zM679 432l-196 -196l-107 108l-66 -66l173 -172l262 261z" />
    <glyph glyph-name="uniE653" unicode="&#xe653;" 
d="M309 646h73q22 0 37 15t15 37q0 14 -7 25.5t-19 18.5t-26 7h-73q-14 0 -25.5 -7t-18.5 -18.5t-7 -25.5t7 -26t18.5 -19t25.5 -7zM822 418h-1q-12 14 -29 17l-272 159h-262l-62 -178q-12 -15 -12 -33v-502q0 -22 16 -38t38 -16h543q22 0 38 16t16 38v502q0 19 -13 35z
M717 -61q0 -17 -12 -29.5t-29 -12.5h-332q-25 0 -37 22v3v4v3v3q0 142 53 237t169 144l188 -107v-267zM744 314q-6 -11 -18.5 -14t-22.5 3l-176 102q-11 6 -14 18.5t3 23t18.5 14t22.5 -3.5l176 -102q11 -6 14 -18t-3 -23v0z" />
    <glyph glyph-name="uniE654" unicode="&#xe654;" 
d="M942 667h-860q-34 0 -58 -24t-24 -58v-604q0 -34 24 -58t58 -24h860q34 0 58 24t24 58v604q0 34 -24 58t-58 24zM480 614q22 0 37.5 -16t15.5 -38t-15.5 -37.5t-37.5 -15.5t-37.5 15.5t-15.5 37.5t15.5 38t37.5 16zM320 614q22 0 37.5 -16t15.5 -38t-15.5 -37.5
t-37.5 -15.5t-37.5 15.5t-15.5 37.5t15.5 38t37.5 16zM160 614q22 0 37.5 -16t15.5 -38t-15.5 -37.5t-37.5 -15.5t-37.5 15.5t-15.5 37.5t15.5 38t37.5 16zM960 4q0 -17 -12 -29t-29 -12h-814q-17 0 -29 12t-12 29v450h896v-450zM343 112q11 0 19 7t8 17q0 11 -8 17.5
t-19 6.5t-19 -6q-7 -8 -8 -18q0 -10 8 -17q8 -6 19 -7zM213 112q38 0 62 12v42q-8 -4 -16.5 -7.5t-17.5 -5t-19 -1.5q-31 0 -49 19.5t-18 51.5q0 33 19 53t51 20q28 0 50 -13v45l-6 2q-3 1 -6 1.5t-6 1.5t-6.5 1.5t-7 0.5t-7 0.5t-7.5 0.5h-7q-51 0 -83 -32q-16 -17 -24 -38
t-8 -46q0 -49 28.5 -78.5t77.5 -29.5zM343 225q11 0 19 6.5t8 17.5q0 10 -8 17t-19 7t-19 -7q-7 -8 -8 -17q0 -10 8 -17q4 -4 8.5 -5.5t10.5 -1.5zM537 333h-41l-105 -253h41z" />
    <glyph glyph-name="uniE655" unicode="&#xe655;" horiz-adv-x="1025" 
d="M220 182zM657 218q0 9 2 32.5t3 26.5q7 18 16 24q4 4 8 6t8 3t7.5 1.5t7.5 0.5h104h146q1 4 1 11.5t0.5 21.5t-1.5 19q-6 20 -27.5 35.5t-52.5 12.5q-5 -1 -12 6.5t-10 15.5q-31 81 -61 167q-19 54 -72 68q-13 4 -27.5 7.5t-29 6.5t-27.5 5.5t-29 6t-28 5.5
q-100 15 -206 0q-75 -12 -80 -13q-58 -11 -95 -39t-52 -82q-9 -35 -47 -134q-1 -4 -4.5 -9t-8 -8.5t-7.5 -2.5q-34 4 -52 -13t-30 -50q-2 -9 0 -25q18 -4 30.5 -7.5t21.5 -5.5q-3 -186 -3 -214q-1 -91 1 -115q3 -41 17 -52q5 -7 72.5 -7t85.5 7q4 2 8 16.5t8.5 38.5t7.5 35
h334v115v19q0 6 1 16t3.5 16.5t5.5 10.5q9 9 15.5 13.5t16.5 7.5h31zM302 209q-3 -7 -12 -13.5t-19 -9.5q-19 -4 -51 -4q-70 7 -75 9q-45 9 -31 72q4 20 19.5 25.5t30.5 -1.5q15 -5 30 -10.5t30 -11.5t30 -12.5t30 -13.5q7 -3 13.5 -14t4.5 -16v0zM179 413q56 159 67 187
q2 4 6 8t9 7t10.5 5.5t10.5 3.5q64 16 98 16q125 -1 299 -9q63 -3 80 -65q3 -12 48 -153q-308 -66 -628 0zM979 189h-23v45q0 9 -3.5 17.5t-9.5 14.5t-14.5 9.5t-17.5 3.5h-179q-10 0 -18 -3.5t-14 -9.5t-10 -14.5t-4 -17.5v-45h-22q-19 0 -32 -13t-13 -32v-225
q0 -18 13 -31.5t32 -13.5h315q12 0 22.5 6t16.5 16.5t6 22.5v225q0 19 -13 32t-32 13v0zM911 9h-67v-67h-45v67h-68v45h68v68h45v-68h67v-45zM911 189h-180v23q0 6 3 11t8.5 8t11.5 3h135q9 0 15.5 -6.5t6.5 -15.5v-23v0z" />
    <glyph glyph-name="uniE656" unicode="&#xe656;" horiz-adv-x="1379" 
d="M347 426q54 0 92 -38t38 -92t-38 -92t-92 -38t-92 38t-38 92t38 92t92 38zM689 426q54 0 92 -38t38 -92t-38 -92t-92 -38t-92 38t-38 92q0 35 17.5 65t47.5 47.5t65 17.5zM1032 426q54 0 92 -38t38 -92t-38 -92t-92 -38t-92 38t-38 92t38 92t92 38z" />
    <glyph glyph-name="uniE657" unicode="&#xe657;" horiz-adv-x="1379" 
d="M1032 146q-62 0 -106 44t-44 106t44 106t106 44q40 0 74.5 -20.5t55 -55t20.5 -74.5q0 -62 -44 -106t-106 -44zM1032 406q-46 0 -78.5 -32.5t-32.5 -78t32.5 -78t78 -32.5t78 32.5t32.5 78t-32 78t-78 32.5zM689 146q-62 0 -106 44t-44 106t44 106t106 44t106 -44
t44 -106t-44 -106t-106 -44zM689 406q-45 0 -77.5 -32.5t-32.5 -77.5q0 -23 8.5 -43.5t23.5 -35t35.5 -23.5t42.5 -9q46 0 78.5 32.5t32.5 78.5q0 30 -15 55.5t-40.5 40t-55.5 14.5zM347 146q-62 0 -106 44t-44 106t44 106t106 44q30 0 58 -12t48 -32t32 -48t12 -58
q0 -62 -44 -106t-106 -44zM346.5 406q-45.5 0 -78 -32.5t-32.5 -78t32.5 -78t78.5 -32.5q30 0 55.5 15t40 40.5t14.5 55.5q0 45 -32.5 77.5t-78 32.5z" />
    <glyph glyph-name="uniE658" unicode="&#xe658;" horiz-adv-x="1379" 
d="M1170 553l-106 -49l-70 44l5 86l103 48q14 7 12.5 15.5t-11.5 13.5q-38 19 -75 24q-24 3 -48 -0.5t-45.5 -12t-43.5 -22.5q-32 -21 -52.5 -54t-20.5 -70q-1 -10 -1.5 -19.5t-2 -19.5t-4 -19t-6 -18t-7.5 -18q-30 -29 -94 -93t-116 -114.5t-96 -91.5q-20 -18 -38 -20.5
t-44 1.5q-80 4 -142 -41.5t-70 -119.5q-1 -10 2.5 -18.5t13.5 -3.5l113 55h6h2l59 -48q4 -3 4 -7l-9 -80q-1 -5 -5 -6l-95 -45q-8 -4 -9.5 -10.5t1 -10.5t5.5 -5q35 -22 76 -27q20 -2 39 -1q67 5 117.5 50t54.5 110q1 12 1 27.5t0.5 22t3 16.5t9 18t17.5 19q38 37 147 147.5
t162 159.5q11 7 28 8q18 0 42 -4h1q78 -9 141.5 37.5t68.5 121.5q1 16 -6.5 22t-16.5 2v0zM366 315q12 4 117 106l91 -93l98 98l-92 93q80 83 83 94t-34 53.5t-79.5 79.5t-53.5 34t-83.5 -72t-141.5 -141.5t-72.5 -83.5t34 -54t80 -80t53.5 -34zM857 246l-31 -31l-35 -35
q-17 -17 -30 -31l270 -275q3 -2 8 -2.5t12 1.5t14.5 6.5t15.5 11t16 14.5q21 20 30 39.5t1 27.5z" />
    <glyph glyph-name="uniE659" unicode="&#xe659;" horiz-adv-x="1379" 
d="M385 -224h-7q-3 0 -6 0.5t-6.5 0.5t-6.5 1q-45 5 -84 29q-17 10 -17 30q1 19 20 30l91 43l7 67l-48 38l-106 -52q-21 -10 -35 5q-11 13 -10 37q9 80 76 131.5t157 46.5h5h5q2 0 4 -1h2h4h4h4h4q18 0 35 16q68 62 212 205q61 61 92 91q8 18 12 38t5 45q1 40 23 77.5
t60 61.5q74 48 150 38q40 -5 81 -25q23 -12 22 -33q0 -21 -23 -32l-93 -43l-3 -63l50 -32l96 44q8 4 15.5 4t14 -2.5t11.5 -8.5q13 -13 11 -36q-5 -75 -65 -126.5t-142 -51.5q-12 0 -25 1l-3 1q-10 1 -18.5 2t-15.5 1h-3q-11 0 -17 -4q-55 -50 -175 -173q-91 -93 -132 -132
q-17 -16 -20.5 -26t-3.5 -33q-1 -19 -1 -32q-3 -34 -18.5 -65.5t-41 -55t-59.5 -39t-72 -17.5q-8 -1 -16 -1zM304 -164q28 -15 60 -19q17 -2 34 -1q62 5 106.5 45t47.5 96q1 11 1 30q0 10 0.5 16t1.5 14t3.5 14t6.5 13t10 14t14 15q41 40 131 132q30 30 47 47.5t43 43
t47.5 46.5t41.5 39l3 2q16 10 38 10h4q17 0 39 -3l3 -1q10 -1 20 -1q66 0 114.5 41t53.5 101v2v1l-112 -52l-88 56l6 109l108 50q-16 8 -31.5 12.5t-30.5 6.5q-21 3 -41.5 0.5t-41 -10.5t-41.5 -22q-29 -19 -46.5 -48t-18.5 -59q-1 -59 -22 -102l-2 -3l-2 -3
q-14 -13 -31.5 -30.5t-29.5 -29t-33 -33.5q-144 -143 -213 -206q-28 -27 -62 -27q-6 0 -20 1h-4q-1 0 -3 0.5t-3 0.5h-4h-11q-70 0 -121 -39.5t-59 -99.5l100 49q5 2 9 2.5t7.5 0t6.5 -2.5l6 -3l60 -48q12 -9 10 -24l-9 -80q-1 -16 -17 -23zM1041 -149q-15 0 -24 10
l-284 288l14 14q18 19 52 53l44 44l14 14l285 -289q14 -18 4.5 -43.5t-35.5 -50.5q-39 -40 -70 -40zM1041 -109v-20v20zM788 149l254 -258q17 4 41 27q9 9 15.5 18.5t9.5 15t4 8.5l-255 258l-6 -6q-3 -3 -6.5 -6t-5.5 -5.5t-6 -6.5l-6 -6zM364 295q-24 0 -80 53t-84 91
q-25 32 -20 49q3 14 74.5 89.5t147 146.5t89.5 75l6 1q25 0 81.5 -53t84.5 -90q24 -32 19 -49q-1 -4 -4 -9t-20.5 -25.5t-50.5 -54.5l92 -94l-36 -36l-75 -75l-14 -13l-91 92q-95 -92 -112 -97zM219 479q7 -14 36 -46t61 -61t47 -36q24 18 106 99l14 14l91 -93l14 14l17 17
l15 15l15 15l9 9l-91 93l13 14q61 63 77 84q-4 7 -14 20t-23.5 27t-29 30t-30 29t-27.5 23t-20 13q-14 -10 -56 -50t-87.5 -85.5t-85.5 -87.5t-51 -57z" />
    <glyph glyph-name="uniE65A" unicode="&#xe65a;" horiz-adv-x="1379" 
d="M652 157q0 -3 -1 -6t-2 -5.5t-2 -4.5q-2 -6 -13 -13q-26 -15 -55 -25t-56 -21.5t-47 -30.5t-25 -54q-1 -11 -2 -21q0 -6 -0.5 -10.5t-0.5 -8.5q-1 -2 -2 -3.5t-2 -3.5q-38 3 -77 6.5t-72 8.5t-55 10t-28 10q-9 7 -13.5 41t3.5 88q5 31 25 47t47 25t56 17t51 22
q18 11 27 21q5 5 8 10t5 10t3 10.5t1 10.5q0 11 -1 23q-2 20 -13 31t-25 23q-8 5 -13 15.5t-9 21.5q-4 12 -8 26l-4 2l-4 2l-4 2q-5 4 -10 12t-10 21.5t-4 25.5t5 21q4 11 10 18q-1 31 3 63q4 26 13 56.5t26 54.5q16 24 35.5 38.5t39.5 22.5t40.5 11t39.5 3q49 0 88 -20.5
t59 -43.5q12 -17 15.5 -31t9.5 -32q-19 -11 -40 -32q-10 -11 -19 -21.5t-17 -20.5q-20 -28 -29.5 -61t-14.5 -61q-5 -34 -5 -69q-8 -8 -12 -19q-3 -10 -4 -23t4 -29q4 -16 10 -25t11 -14q3 -3 6 -5t6 -3q4 -15 7 -29q4 -11 9.5 -23.5t13.5 -18.5q7 -6 11 -9.5t6 -7t2.5 -9.5
t2.5 -16v0zM1172 -22q4 -14 6.5 -33.5t2.5 -39.5t-3 -37.5t-9 -25.5q-2 -3 -7.5 -6t-15.5 -6q-19 -6 -47.5 -11t-62.5 -9q-6 -1 -13 -2t-14 -1.5t-14 -1.5t-13.5 -1.5t-13.5 -0.5q-12 -1 -23 -2l-22 -2q-11 -1 -22 -1q-32 -2 -56.5 -2t-56 2t-66 4.5t-67.5 6t-60.5 8t-47 9
t-23.5 8.5q-8 7 -13 41t3 87q5 32 25 47.5t47 25t56 17t51 22.5q18 11 27 21t13.5 19.5t4.5 20.5t-1 24q-2 20 -13.5 31t-25.5 22q-7 6 -12 16.5t-9 21.5q-4 12 -8 26q-6 2 -12 6q-5 4 -10 12q-3 4 -5.5 9t-4.5 12q-5 14 -4 26t5 20q4 10 10 18v7v8v8q0 4 0.5 8t0.5 8t1 8v8
q1 4 1 8q4 27 12.5 57t25.5 55q16 24 35.5 38.5t40 22.5t41 11t38.5 3q50 0 89 -20.5t58 -43.5q21 -26 31 -59t15 -61q5 -33 4 -66l9 -11q3 -6 5.5 -15t0.5 -23q-2 -18 -8 -28.5t-12 -16.5q-6 -7 -15 -9q-2 -7 -4 -13.5t-4 -12.5q-4 -11 -10 -21.5t-12 -15.5q-4 -3 -7.5 -6
t-7.5 -6q-6 -5 -11 -10q-1 -1 -2 -3l-2 -2l-2 -4q-1 -1 -2 -3q-3 -7 -5 -17q-2 -12 -1.5 -25.5t6 -26t19 -24t36.5 -20.5q20 -9 45 -15.5t48 -15t41 -22.5t26 -35v0z" />
    <glyph glyph-name="uniE65B" unicode="&#xe65b;" horiz-adv-x="1379" 
d="M844 -224q-12 0 -26.5 0.5t-30.5 1.5t-32.5 2t-33.5 3q-33 3 -68 6q-11 1 -21.5 2.5t-20.5 3t-19.5 3t-18 3t-16 3t-14.5 2.5q-23 6 -32 12q-14 13 -20 54q-5 37 3 93q7 39 33 60q22 17 52 28q29 10 58 18q13 3 24.5 8t21.5 11q15 10 23 19q3 3 5.5 6.5t4.5 7.5q2 5 2 12
v23q-2 12 -8 18q-6 5 -12 10.5t-12 9.5q-10 9 -18 24q-3 6 -5.5 11.5t-4.5 11.5q-3 10 -6 19l-6 4q-8 6 -15 17q-4 5 -7 11.5t-6 14.5q-6 17 -5 34q1 16 7 27l2 5q2 3 3.5 5.5t3.5 4.5q-1 29 3 59q4 29 13 60q4 17 11.5 32t16.5 29q17 26 40 43q21 16 44 25q11 5 22.5 8
t23.5 5q80 11 139 -20q22 -11 38 -23.5t26 -25.5q24 -29 35 -65q11 -34 16 -64q4 -31 4 -61l6 -9q5 -9 8 -20q3 -13 0 -31q-2 -21 -10 -35q-3 -6 -7 -11.5t-8 -9.5q-6 -6 -13 -10q-3 -9 -5 -17q-3 -7 -5.5 -13t-5.5 -12q-8 -14 -19 -22q-6 -5 -13 -11q-5 -4 -9 -8
q-2 -2 -3 -4l-2 -4q-3 -4 -4 -12q-2 -9 -1 -21q0 -9 4 -18q5 -10 15 -18q10 -9 30 -17t43 -14q27 -7 50 -16q26 -10 46 -25q23 -17 32 -44q5 -17 8 -38q1 -10 1.5 -20.5t0.5 -21.5q0 -21 -3 -40q-3 -22 -12 -34q-7 -12 -33 -20q-7 -2 -14.5 -4t-16.5 -4t-19 -3
q-14 -3 -30 -5t-33 -5q-35 -4 -70 -7q-36 -3 -67 -5q-32 -2 -58 -2zM537 -151q5 -2 15 -4q18 -5 45 -9q14 -2 29 -4t31 -4q5 0 9.5 -0.5t9.5 -1t9.5 -1t9.5 -1.5h10q5 -1 9.5 -1t9.5 -1q34 -3 66 -5q15 -1 29 -1.5t25 -0.5q24 0 56 2q10 1 21 1.5t22.5 1.5t22.5 2q34 3 68 7
q33 5 61 9q28 5 45 11q9 2 13 5q3 6 5 17q3 16 3 34q0 19 -2 37q-3 18 -6 31q-6 15 -19 24q-16 12 -36 20q-22 9 -46 15q-26 6 -48 16q-26 9 -42 23q-8 8 -14 15.5t-9.5 15.5t-5.5 16.5t-3 17.5q0 15 2 29q3 13 7 23q3 4 5.5 8.5t6.5 7.5q3 4 6.5 7t6.5 6q7 5 14 11l2 2
q1 1 2.5 3t3.5 5q5 9 8 19q4 10 8 24l3 12l12 3q1 0 2.5 1t2.5 2q4 4 9 12q4 7 5 21q1 7 1 10t-1 6q-2 7 -4 11q-1 3 -3 4l-8 6l1 10q0 16 -1 31.5t-3 31.5q-5 27 -15 58q-4 14 -11 27.5t-17 24.5q-16 21 -51 39q-48 25 -116 16q-18 -3 -36 -10.5t-36 -20.5
q-8 -6 -15.5 -14.5t-14.5 -18.5q-16 -23 -24 -49q-7 -29 -11 -55q-4 -30 -3 -60v-7l-5 -6q-1 -2 -2.5 -4t-2.5 -4l-2 -4q-3 -6 -4 -14q0 -8 3 -18q1 -3 3 -6l2 -5q1 -2 1.5 -3.5t1.5 -2.5q2 -3 4 -5l2 -2q3 -2 6 -3l10 -3l3 -11q4 -14 7 -25q4 -9 9 -19l2 -4q1 -2 2 -3l3 -3
q7 -5 13.5 -11t12.5 -12q3 -3 6 -6.5t5.5 -7.5t4 -9t2.5 -9.5t2 -10.5q1 -15 1 -26q0 -15 -6 -29q-6 -12 -18 -25q-10 -11 -30 -24q-12 -8 -26.5 -14t-30.5 -10q-28 -7 -54 -17q-25 -9 -42 -22q-7 -6 -11.5 -14.5t-6.5 -20.5q-7 -50 -3 -82q3 -20 7 -28zM442 -70
q-19 2 -38.5 3.5t-38.5 3.5q-40 4 -73 9q-11 2 -21 3.5t-19 3t-16 3.5q-27 6 -37 14q-15 11 -20 53q-5 37 3 94q7 38 32 59q23 18 54 29q28 9 57 17q26 7 46 19q15 11 23 19q6 7 9 13q2 7 2 14v11v11q-2 12 -8 18q-10 10 -23 21q-5 4 -10 9.5t-9 13.5q-1 3 -2.5 6t-2.5 6
t-2.5 5.5t-2.5 5.5q-1 5 -2.5 9.5t-3.5 9.5l-6 4q-8 7 -15 17q-4 5 -7 11.5t-6 14.5q-6 17 -5 34q1 15 7 27l9 17q-1 29 3 59q2 14 5.5 28.5t7.5 30.5q5 17 12.5 32t16.5 29q9 12 19 23t21 19q21 16 43.5 25.5t45.5 12.5q80 11 139 -20q43 -22 65 -48q16 -21 20 -39l2 -10
l4 -10q1 -5 3 -11l4 -15l-13 -8q-8 -5 -17 -12t-19 -17l-18 -20q-9 -10 -16 -20q-18 -25 -26 -54q-4 -11 -6.5 -21t-4.5 -20t-4 -19q-2 -16 -3 -32t-1 -33v-7l-5 -6q-3 -3 -5 -6t-3 -7q-3 -7 -4 -17q0 -4 0.5 -7t1 -7t1.5 -8q4 -14 9 -20q4 -7 8 -11l4 -3l10 -3l3 -11
q4 -15 7 -28q4 -11 9 -22q3 -7 7 -10q8 -7 13 -11q2 -3 4 -5.5t4 -4.5q6 -8 7 -19q0 -3 0.5 -6t1.5 -8v-3v-4q-3 -14 -7 -22q-5 -11 -21 -20q-27 -17 -59 -28l-18 -6l-18 -8q-9 -3 -18 -7q-24 -10 -41 -27q-8 -7 -12.5 -17.5t-6.5 -24.5q-2 -11 -2 -19q0 -2 -0.5 -4t-0.5 -3
v-4v-4q0 -1 -0.5 -2.5t-0.5 -3.5v-3l-2 -3q-1 -3 -3 -6l-6 -11zM225 -1l2 -1q2 0 6.5 -1t10.5 -3q21 -4 54 -9q16 -3 34 -5t37 -4q29 -3 60 -5v6q1 5 1.5 11t1.5 12q6 41 31 65q22 21 52 34q28 13 58 22q27 10 51 24q5 3 6 5q1 3 2 7q-1 9 -2 14l-3 5q-1 1 -2 1.5t-3 2.5
l-2 2q-1 1 -3 2l-7 6q-3 4 -6 9t-5 10q-3 7 -5.5 13.5t-4.5 12.5l-6 22q-5 3 -9 7q-3 4 -6.5 8t-6.5 9q-8 11 -13 31q-6 19 -5 35q1 17 6 29q4 10 11 19q0 33 5 64q5 30 15 65q5 18 13 34.5t19 31.5q17 23 39 45q15 15 30 26q-3 10 -5 20q-3 10 -13 23q-5 6 -13 12.5
t-17.5 13t-21.5 12.5q-48 26 -116 16q-18 -3 -35.5 -10t-35.5 -20q-17 -13 -30 -34q-16 -22 -24 -49q-4 -14 -7 -27.5t-5 -26.5q-4 -30 -3 -60v-8l-6 -6q-3 -4 -6 -10q-1 -3 -1 -5l-2 -6v-5q-1 -3 0 -6v-6l2 -6l5 -10q2 -4 3 -7q4 -5 7 -7l5 -3l10 -3l3 -10q2 -7 4 -13.5
t3 -12.5q4 -9 9 -19q1 -2 2.5 -4t3.5 -3l2 -2q14 -12 26 -24q16 -16 19 -43q1 -13 1 -25q0 -14 -5 -28q-3 -7 -7.5 -13.5t-10.5 -12.5q-10 -12 -30 -25q-13 -8 -27 -14t-30 -10q-28 -7 -55 -16q-11 -4 -21.5 -10t-19.5 -13q-14 -11 -18 -34q-7 -51 -3 -83q3 -22 7 -28v-1z
" />
    <glyph glyph-name="uniE65C" unicode="&#xe65c;" 
d="M695 12h-490v634h490v-116q33 17 62 10v147q0 26 -18 44t-44 18h-490q-26 0 -44 -18t-18 -44v-798q0 -26 18 -44t44 -18h490q17 0 31 8.5t22.5 22.5t8.5 31v153q-11 -7 -19 -12q-3 -2 -7 -3.5t-8 -3.5t-8 -3.5t-7.5 -3t-6 -2.5t-4.5 -2h-2zM378 698q0 2 1 3.5t2.5 3
t3.5 2.5t4 1h102q2 0 4 -1t3 -3l2 -2q1 -2 1 -4v-11q0 -4 -3 -7t-7 -3h-102q-5 0 -8 3t-3 7v11zM450 -111q-17 0 -29 12t-12 29t12 29t29 12q11 0 20.5 -5.5t15 -15t5.5 -20.5q0 -9 -3.5 -16.5t-9 -13t-13 -8.5t-15.5 -3zM880 172v8q0 5 -0.5 23t-0.5 45q-1 39 -12.5 79
t-18.5 54t-12 22l-33 57q-10 20 -30 34.5t-45 6.5q-8 -2 -14 -6t-10 -10q-7 7 -16 10q-7 3 -14 4t-14 -0.5t-14 -5.5q-2 -1 -4.5 -2.5t-4.5 -2.5t-4 -2.5t-3.5 -3.5t-3 -3.5t-2.5 -3.5q-5 3 -10 5q-23 11 -51 -5q-5 -4 -9.5 -7.5t-7.5 -8.5l-37 59q-13 26 -35 33
q-20 7 -40 -4q-17 -10 -22.5 -26.5t-2.5 -30t9 -24.5l76 -135q-20 1 -36 -9q-31 -18 -30 -51q0 -27 26 -42q14 -9 29 -20t38 -29q56 -44 91 -66q62 -37 80 -51q9 -7 18 -2l162 94q7 3 9 12q0 2 -1 5v0z" />
    <glyph glyph-name="uniE65D" unicode="&#xe65d;" 
d="M512 800q-139 0 -257 -68.5t-186.5 -186.5t-68.5 -257t68.5 -257t186.5 -186.5t257 -68.5t257 68.5t186.5 186.5t68.5 257t-68.5 257t-186.5 186.5t-257 68.5zM397 517h33v-64h-33v64zM338 492l46 -45l-24 -24l-45 46zM290 410h64v-33h-64v33zM477 71q-38 -38 -91.5 -38
t-91.5 38t-38 91.5t38 91.5l92 92l34 -35l-92 -91q-9 -10 -15 -21.5t-7.5 -24t0 -24.5t7.5 -24t15 -21q24 -24 57.5 -24t57.5 24l92 92l34 -35zM627 73h-34v65h34v-65zM685 98l-46 46l24 23l46 -45zM734 180h-65v34h65v-34zM729 323l-91 -92l-35 34l92 92q16 16 21.5 36.5
t0 41.5t-21 36.5t-36.5 21t-42 0t-37 -20.5l-91 -92l-35 34l92 92q38 38 92 38t91.5 -38t37.5 -91.5t-38 -91.5z" />
    <glyph glyph-name="uniE65E" unicode="&#xe65e;" 
d="M512 800q-139 0 -257 -68.5t-186.5 -186.5t-68.5 -257t68.5 -257t186.5 -186.5t257 -68.5t257 68.5t186.5 186.5t68.5 257t-68.5 257t-186.5 186.5t-257 68.5zM574 176l-110 -109q-35 -35 -85 -35t-86 35l-2 2q-35 36 -35 86t35 85l77 77q-1 -35 12 -66l-49 -50
q-13 -12 -17.5 -29t0 -34t17.5 -29l2 -3q9 -9 21.5 -14t24.5 -5t24.5 5t21.5 14l109 110q20 19 20 46t-20 46l-2 2l-4 4q-2 2 -4 3.5t-5 2.5l40 40q4 -2 7 -5l6 -6l2 -2q45 -45 33 -108q-8 -37 -33 -63zM733 336l-77 -77q1 35 -12 66l49 50q20 19 20 46t-20 46l-2 2
q-19 20 -46 20t-46 -20l-109 -109q-19 -19 -19 -46t19 -46l2 -2q1 -2 2.5 -3.5t3.5 -2.5t3.5 -2t3.5 -2l-40 -40q-4 2 -7 5t-6 5l-2 2q-35 36 -35 86t35 86l110 109q35 35 85 35t86 -35l2 -2q14 -14 22.5 -31.5t11 -36t0 -37t-11 -36t-22.5 -30.5z" />
    <glyph glyph-name="uniE65F" unicode="&#xe65f;" 
d="M905 8q-2 2 -6 4q-5 2 -9 4.5t-8 6t-7 8.5q-9 12 -9 29q0 9 2.5 17t8 14.5t12.5 11.5t14 8q4 1 8 6t3 13q-2 15 -8 29t-13 21q-5 4 -10 5q-3 0 -5.5 -0.5t-4.5 -1.5q-5 -2 -10 -3.5t-10.5 -2t-11.5 -0.5q-3 0 -6 0.5t-5 1.5l-6 2q-2 1 -4 2.5t-4.5 3t-4.5 3.5
q-12 13 -14.5 29t4.5 30q1 2 2 6.5t-2 8.5l-10 12l-15 10q-8 3 -16 5q-4 1 -8 1.5t-8 0.5t-8 -4q-3 -2 -4.5 -4t-2.5 -4q-2 -8 -7 -14t-12 -11q-2 -2 -4.5 -3.5t-5 -2.5t-4.5 -2h-6q-2 -1 -5 -1.5t-6 -0.5q-17 0 -29 10q-7 5 -11.5 11t-6.5 13q-1 2 -2.5 4.5t-2.5 4.5
q-4 4 -11 4h-2q-2 0 -3.5 -0.5t-3.5 -0.5t-4 -1q-5 -1 -9 -2t-9 -3q-9 -3 -16.5 -8.5t-10.5 -12.5q-2 -3 -1 -7t2 -7q0 -4 1 -10q1 -7 0 -16q-1 -8 -4 -17q-1 -4 -3 -8t-5 -7q-13 -12 -29 -14t-31 4q-5 1 -9 2h-2q-1 0 -2.5 -0.5t-2.5 -1.5q-5 -3 -10 -9q-2 -3 -4 -6.5
t-3 -7.5q-3 -8 -5 -16q-1 -2 -1.5 -4.5t-0.5 -5.5v-4q0 -3 0.5 -6t2 -6t3.5 -4.5t4 -2.5q15 -6 27 -19q2 -2 3 -3.5t2 -3.5t2 -3.5t2 -3.5l2 -4v-4q1 -2 1 -4v-5q0 -17 -12 -30.5t-27 -19.5q-8 -3 -10 -14q-1 -6 1 -15.5t6 -17.5q1 -3 2 -5l2 -4l2 -4q1 -2 2 -3q5 -8 11 -10
q7 -3 14 -1q11 4 21 4q9 1 19 -1.5t17 -9.5q12 -13 13 -27v-5v-5q0 -2 -0.5 -4.5t-1.5 -4.5v-4l-2 -4q-4 -8 -4 -13t3 -8q3 -5 10 -10t16 -9q4 -2 8.5 -3.5t8.5 -2.5q3 -1 6 -1.5t5.5 -1t4.5 -0.5t4 1h4q2 1 3 2q5 3 8 9q5 15 19 26t31 11q6 0 11 -1t10 -3.5t10 -6.5
q13 -12 18 -27h1q1 -4 5 -7.5t9 -3.5q6 0 15 2q2 1 4 1l4 2q2 0 4 1l4 2q8 3 14 7q7 5 10 9q6 10 1 20q-6 14 -4 30t14 29q2 2 4 3.5t4.5 2.5t4.5 2q8 3 16 4h4q3 0 5.5 -0.5t5.5 -0.5q4 -1 7 -1.5t5 -1.5q6 -2 10.5 -2t10.5 3t11 10q2 3 3.5 5.5t2.5 5t2 5.5q4 9 5.5 17.5
t0.5 14.5q-3 7 -8 11v0zM781 19q-9 -20 -23.5 -35t-34.5 -23.5t-42.5 -8.5t-42.5 8.5t-35 23.5q-14 15 -22.5 34.5t-8.5 42.5q0 11 2 21.5t6 20.5q9 20 23.5 34.5t34.5 23t42 8.5q8 0 15 -0.5t14 -2.5t14 -5q5 -2 9.5 -4.5t9 -5.5t8.5 -6.5t8 -6.5q14 -15 22.5 -35
t8.5 -42.5t-8 -41.5zM456 63q0 4 -2 6.5t-5 4t-7.5 4.5t-7.5 6q-21 21 -21 43q0 3 0.5 7.5t2 9.5t3 10.5t3.5 11t4 10.5t4 9t4 7q15 21 75 21q11 0 17 12q4 10 -6 31q-7 14 5.5 29.5t26.5 23.5l8 3l16 6l8 2q16 6 34 7t30 -7q2 -1 7 -5.5t9.5 -9t5.5 -6.5q1 -1 5 -4.5t8 -5
t8 -1.5q6 0 17 20.5t15 22.5q7 2 20 2t24 -1l10 -1l11 -11l2 183l-271 246h-322q-17 0 -32.5 -6t-27 -16.5t-18 -24.5t-6.5 -30v-644q0 -32 24.5 -54.5t59.5 -22.5l216 5q-2 2 -3.5 5.5t-4.5 12.5t-3 14q0 28 11 43q1 2 5.5 4t9 3.5t6.5 3.5l3 2q3 1 5.5 3t6 4.5t5.5 5.5
t2 6zM465 695q6 0 12 -2.5t10.5 -7t7 -10.5t2.5 -12t-2.5 -12t-7 -10.5t-10.5 -7t-12.5 -2.5t-12 2.5t-10 7t-7 10.5t-2.5 12t2.5 12t7 10.5t10 7t12.5 2.5zM202 631q-13 0 -22 9.5t-9 22.5q0 9 4 16t11.5 11.5t15.5 4.5q13 0 22.5 -9.5t9.5 -22.5q0 -9 -4.5 -16
t-11.5 -11.5t-16 -4.5zM334 631q-14 0 -23 9.5t-9 22.5q0 9 4 16t11.5 11.5t16.5 4.5q13 0 22 -9.5t9 -22.5q0 -9 -4 -16t-11.5 -11.5t-15.5 -4.5z" />
    <glyph glyph-name="uniE660" unicode="&#xe660;" horiz-adv-x="1379" 
d="M1215 442v-488q0 -41 -28.5 -70t-69.5 -29h-905q-40 0 -69 29t-29 70v488q27 -30 62 -54q222 -151 305 -212q35 -26 57 -40q11 -7 25.5 -14.5t32.5 -15.5q37 -15 68 -15h1q32 1 68 15q12 5 22.5 10t19.5 10t16 10q22 14 57 40q104 76 306 212q35 24 61 54v0zM1215 622
q0 -48 -30 -92.5t-75 -75.5q-231 -160 -287 -200q-7 -4 -27 -18.5t-33 -23.5t-31.5 -20t-35.5 -16.5t-31 -5.5h-1q-14 0 -30.5 5.5t-35.5 16.5t-32 20t-33 23.5t-26 18.5q-56 40 -161 112.5t-126 87.5q-38 26 -72 71t-34 84q0 48 25.5 80t72.5 32h905q40 0 69 -29t29 -70v0z
" />
    <glyph glyph-name="uniE661" unicode="&#xe661;" horiz-adv-x="1379" 
d="M1095 -145h-870q-46 0 -78.5 33t-32.5 79l1 619q-1 2 -1 5v6q0 51 28 87q30 37 83 37h870q45 0 78 -33t33 -79v-2v-640q0 -23 -8 -43t-24 -36q-33 -33 -79 -33v0zM148 509l-1 -542q0 -33 23 -55q12 -12 25.5 -17.5t29.5 -5.5h870q32 0 55 22.5t23 55.5v542
q-30 -44 -75 -75q-222 -154 -277 -192q-1 -1 -3 -2.5t-5.5 -4t-7.5 -5t-8 -6.5q-20 -14 -33 -23q-2 -1 -5 -3l-6 -4q-3 -2 -7 -4l-6 -4q-4 -2 -7 -5q-20 -11 -38 -17q-35 -12 -70 0q-6 2 -12 4.5t-12.5 6t-12.5 6.5q-19 11 -32 20q-7 5 -15 10.5t-17 12.5q-18 12 -25 18
q-52 36 -155 108q-101 70 -121 84q-39 26 -73 72q-1 0 -1 0.5t-1 2.5v0zM225 687q-37 0 -57 -24q-21 -26 -21 -67q0 -31 29 -70q31 -41 66 -65q18 -13 121 -84q101 -70 155 -108q7 -5 25 -18q19 -13 32 -22q12 -8 29 -19q17 -10 31 -14q25 -9 50 0q14 4 31 14q18 11 30 19
t31 22q19 13 25 18q55 38 277 192q20 14 37 31.5t31 37.5q8 12 14 25t9 26t3 26v4q-1 31 -23 53q-12 12 -25.5 17.5t-29.5 5.5h-870z" />
    <glyph glyph-name="uniE662" unicode="&#xe662;" 
d="M905 653q-12 12 -27 16.5t-30.5 0.5t-27.5 -16l-407 -409l-211 216q-16 17 -40 16.5t-41 -18.5q-12 -12 -16.5 -27.5t-1 -31t14.5 -26.5l257 -264q16 -17 40 -16t42 19q4 4 7 8.5t5 9.5q5 4 7 6l428 429q11 12 15.5 27.5t0.5 31.5t-15 28v0zM905 653z" />
    <glyph glyph-name="uniE663" unicode="&#xe663;" 
d="M693 257q-3 0 -7 -1.5t-7 -3.5t-5 -5t-3.5 -6.5t-1.5 -7.5v-80q0 -15 -7 -28t-20 -20.5t-28 -7.5h-444q-23 0 -39.5 16.5t-16.5 39.5v462q0 23 16.5 39.5t39.5 16.5h444q23 0 39 -16.5t16 -39.5v-84q0 -5 2 -9.5t5.5 -7.5t8 -5t9 -2t9 2t8 5t5 7.5t1.5 9.5v84
q0 43 -30 73.5t-73 30.5h-444q-21 0 -40 -8.5t-33 -22t-22 -33t-8 -40.5v-462q0 -43 30 -73.5t73 -30.5h444q14 0 27.5 4t24.5 10.5t21 16t16.5 21t10 25t3.5 27.5v80q0 10 -7 17t-17 7zM388 357h486l-89 -90q-8 -7 -8 -17.5t7.5 -18t18 -7.5t18.5 7l133 134q1 0 1 1h1v1v0
l1 1v1h1v1h1v1v1h1v1v1v0v1h1v1v1v0v1v1l1 1v1v1v1v1v1v1l-1 1v1v1v1q0 1 -1 1v1v1v0v1h-1v1l-1 1v1h-1v0v1h-1v1l-1 1v0q0 1 -1 1l-136 136q-3 3 -8 5t-10 2q-10 0 -17.5 -7.5t-7.5 -18t7 -17.5l92 -93h-486q-10 0 -17.5 -7.5t-7.5 -18t7.5 -18t17.5 -7.5z" />
    <glyph glyph-name="uniE664" unicode="&#xe664;" 
d="M512 851q-80 0 -155 -22.5t-135.5 -63t-106 -94t-70.5 -120.5t-25 -139q0 -163 120 -286q5 -6 7 -21.5t0.5 -35t-9 -41t-19.5 -37.5q-5 -7 -11 -13t-13 -11t-11 -8t-11 -7q-8 -5 -11 -7.5t-5 -6t0 -6t8 -5.5q14 -8 38.5 -9.5t57 5t62.5 22.5q47 25 91 38t62 8
q66 -17 136 -17q100 0 191 35t157 93.5t105 139.5t39 170.5t-39 170.5t-105 139.5t-157 93.5t-191 35zM512 8q-65 0 -127 16q-9 2 -20 2q-61 0 -158 -51q-14 -7 -29 -12.5t-26 -7.5t-22 -3q9 9 16 18q30 39 36 97.5t-18 82.5q-35 36 -59.5 78.5t-37.5 89t-13 94.5
q0 82 36.5 157t98 129t146 86t177.5 32t177.5 -32t146 -86t98 -129t36.5 -157q0 -109 -61.5 -202t-167 -147.5t-229.5 -54.5zM271 503v0q-36 0 -61 -25t-25 -60t25 -60t61 -25v0q23 0 42.5 11.5t31 31t11.5 42.5q0 35 -25 60t-60 25zM430 418q0 -35 25 -60t60 -25
q18 0 33.5 6.5t27 18t18.5 27.5t7 33q0 35 -25 60t-60.5 25t-60.5 -25t-25 -60zM674 418q0 -35 25 -60t60.5 -25t60.5 25t25 60t-25 60t-60 25q-14 0 -27 -4t-23.5 -12t-18.5 -18.5t-12.5 -23.5t-4.5 -27z" />
    <glyph glyph-name="uniE665" unicode="&#xe665;" 
d="M951 -126h-878q-20 0 -31 26q-5 20 -7 43.5t11 55t38 55.5q30 29 105.5 69t114.5 57.5t66 28.5q5 3 7 8l6 64q-34 26 -58.5 67.5t-38.5 96.5q-20 2 -37.5 23t-26.5 52q-6 26 -4.5 47.5t10.5 36.5t24 19q6 1 13 1q1 132 64 201t183.5 69t183.5 -69t64 -201q3 0 6.5 -0.5
t6.5 -0.5q15 -4 24 -19t10 -36.5t-5 -47.5q-8 -31 -25.5 -52t-37.5 -23q-30 -112 -98 -164l6 -64q2 -5 7 -8q16 -7 41.5 -18t77 -35t98 -51.5t69.5 -50.5q25 -24 38 -55.5t11 -55t-7 -43.5q-11 -26 -31 -26z" />
    <glyph glyph-name="uniE666" unicode="&#xe666;" 
d="M940 54q-11 11 -27.5 22.5t-34.5 23t-40 23t-42 21.5t-41.5 20t-37.5 17.5t-31.5 14t-21.5 9t-10 4.5q-6 2 -7 8l-6 64q68 52 98 164q13 2 25.5 11.5t22 26t15.5 37.5q10 38 1.5 67.5t-30.5 35.5q-3 0 -6.5 0.5t-6.5 0.5q-1 132 -64 201t-183.5 69t-183.5 -69t-64 -201
q-7 0 -13 -1q-23 -6 -31.5 -35.5t1.5 -67.5q9 -31 26.5 -52t37.5 -23q14 -55 38.5 -96.5t58.5 -67.5l-6 -64q-1 -6 -7 -8q-27 -11 -66 -28.5t-114.5 -57.5t-105.5 -69q-25 -24 -38 -56t-11 -55.5t7 -42.5q11 -28 31 -28h878q3 0 7 1t7.5 3.5t6.5 6t5.5 7.5t4.5 10
q5 13 6.5 30.5t-2 38.5t-15.5 43.5t-31 41.5zM950 -88q-2 -6 -3 -6h-870q-1 0 -2 4l-1 2q-4 14 -5 32t9 42t30 43q33 32 117 75t158 73q11 4 18.5 14.5t8.5 22.5l9 83l-15 11q-59 46 -85 146l-7 23l-23 2q-4 1 -10 6t-12.5 17t-11.5 27q-5 19 -4 32.5t4 20.5t5 8l38 -4l1 37
q1 120 53.5 178.5t159.5 58.5q72 0 119 -26t70.5 -78.5t23.5 -132.5l1 -37l37 4q2 -1 4 -3.5t3.5 -8t2.5 -12t0 -16.5t-4 -21q-6 -22 -16.5 -35.5t-17.5 -14.5l-23 -2l-6 -23q-27 -101 -86 -146l-15 -11l9 -83q1 -12 8.5 -22t18.5 -15q31 -13 67.5 -29.5t78 -37t76.5 -42
t53 -38.5q10 -10 18 -21.5t12 -22.5t6.5 -21.5t2.5 -20.5t-1 -18t-4 -14z" />
    <glyph glyph-name="uniE667" unicode="&#xe667;" 
d="M960 61q-33 52 -276 163l-16 7l-6 42q27 20 49 55q6 11 12.5 22.5t10.5 21t7.5 17.5t4.5 13l2 4l15 8q9 4 27.5 21.5t24.5 39.5t7 43.5t-1 32t-6 24.5q-3 10 -13 17.5t-19 11.5l-9 3v3v6v11q7 -2 13 -4t8.5 -2.5t3.5 -0.5l10 32q-12 4 -36 11q-1 17 -2 31.5t-2.5 29
t-3.5 20.5q-18 92 -32 102q-4 2 -23.5 7.5t-47 12t-55.5 12.5t-52 10t-35 4q-13 0 -42 -4.5t-60 -11.5t-60.5 -15.5t-42.5 -14.5q-24 -49 -37 -121q-2 -10 -3.5 -26.5t-3.5 -35.5l-1 -1q-20 -5 -33 -10l10 -32q16 5 23 7q0 -6 0.5 -11t0.5 -7v-2h-3q-2 0 -8 -2.5t-11.5 -7
t-11 -15t-8.5 -24.5q-2 -7 -3 -14t-2 -12t-0.5 -11.5t0 -9.5t1.5 -9.5t2 -8t3 -9t3.5 -8.5t4.5 -10t5 -10q8 -17 21.5 -29.5t23.5 -16.5l9 -4q16 -42 42 -78q7 -10 14 -18.5t12 -13.5t8.5 -9t5.5 -5l2 -2l-8 -49q-28 -11 -71 -30t-125 -62t-105 -68q-9 -11 -16 -21
t-12 -16.5t-8.5 -16t-5.5 -12.5t-2.5 -14t-1 -12.5t0 -15.5t0.5 -16q0 -20 11.5 -38t22.5 -25l11 -7l879 -1q44 11 46 62q2 40 -4 60.5t-33 62.5zM311 719q6 31 14 56.5t15 43.5q21 8 58.5 17t72.5 15.5t49 6.5q20 0 92 -16t99 -24q9 -19 21 -80q3 -14 6 -65q-11 3 -38 10
t-33.5 9t-25 6.5t-24.5 5.5t-20 3.5t-23.5 2.5t-22.5 1t-28 1q-28 0 -68.5 -6.5t-75 -14.5t-71.5 -18q-1 0 -2 -1q3 34 5 47zM375 195l29 12l14 89l-17 12q-14 12 -35 41q-23 32 -37 69l-6 16l-16 5q-23 8 -33 31l-4 8q-11 24 -12.5 34t4.5 38q2 10 5 15.5t5 7.5l38 -3
l-5 42l-1 22v2v0h1q1 1 2 1q148 41 216 41q38 0 97 -12.5t119 -28.5h1v-2v-2v-26v-25l24 -7q13 -5 18 -11q11 -39 0 -80q-4 -13 -16.5 -25t-19 -15.5t-10.5 -5.5l-15 -6l-6 -15q-13 -40 -33 -70q-20 -33 -41 -47l-16 -12l13 -81l17 -7q7 -3 14 -6.5t14 -6.5v-93h-308v101z
M222 9v-98h-139q-22 16 -22 36v13q-1 28 5 43t32 45q27 30 158 93v-64q-15 -11 -24.5 -29t-9.5 -39zM802 -94h-546v103q0 18 10.5 31.5t23.5 14.5v85l51 21v-101h376v101l34 -21v-85q25 -1 38 -14t13 -32v-103zM963 -60q-1 -22 -17 -30h-110v99q0 24 -13 44t-38 30v54
q58 -30 98 -55.5t48 -39.5q24 -37 28.5 -52.5t3.5 -49.5z" />
    <glyph glyph-name="uniE668" unicode="&#xe668;" 
d="M773 666q-2 53 -8 78q-18 92 -32 102q-10 7 -98.5 26.5t-114.5 19.5q-13 0 -42 -4.5t-60 -11.5t-60.5 -15.5t-42.5 -14.5q-3 -6 -7.5 -16t-14 -41.5t-15.5 -63.5q-3 -16 -5 -31t-2 -28q170 49 250 49q84 0 252 -49zM960 61q-33 52 -276 163l-16 7l-6 42q27 20 49 55
q6 11 12.5 22.5t10.5 21t7.5 17.5t4.5 13l2 4l15 8q9 4 27.5 21.5t24.5 39.5t7 43.5t-1 32t-6 24.5q-3 10 -13 17.5t-19 11.5l-9 3v28q-169 49 -253 49q-83 0 -251 -49l1 -28h-3q-2 0 -8 -2.5t-11.5 -7t-11 -15t-8.5 -24.5q-6 -23 -5.5 -39.5t3.5 -26t12 -28.5l1 -3
q1 -1 2 -2.5t1 -2.5q8 -17 21.5 -29.5t23.5 -16.5l9 -4q16 -42 42 -78q7 -10 14 -18.5t12 -13.5t8.5 -9t5.5 -5l2 -2l-8 -49q-28 -11 -71 -30t-125 -62t-105 -68q-9 -11 -16 -21t-12 -16.5t-8.5 -16t-5.5 -12.5t-2.5 -14t-1 -12.5t0 -15.5t0.5 -16q0 -20 11.5 -38t22.5 -25
l11 -7l879 -1q5 1 12.5 4.5t20 19.5t13.5 38q1 28 -1 43t-9.5 33t-26.5 47zM785 -94h-546v108q0 18 10.5 31.5t23.5 14.5v85l51 21v-106h376v106l51 -21v-85q13 -1 23.5 -14.5t10.5 -31.5v-108z" />
  </font>
</defs>
</svg>
